<svg width="1320" height="1816" viewBox="0 0 1320 1816" fill="none" xmlns="http://www.w3.org/2000/svg">
  <g id="v4_compressed 1">
    <g id="Group">
      <g id="MEL">
        <g id="Face">
          <path id="Vector" d="M1005.45 580.21C1005.45 728.86 850.83 849.36 660.1 849.36C469.37 849.36 314.75 728.86 314.75 580.21C314.75 431.56 472.14 315.22 662.87 315.22C853.6 315.22 1005.44 431.56 1005.44 580.21H1005.45Z" fill="#BE7750"/>
          <path id="Vector_2" d="M1011.49 580.21C1011.63 639.95 985.6 697.77 945.09 741C804.29 891.05 527.46 893.08 382.16 748.39C286.24 652.58 283.46 512.7 379.75 415.94C510.24 286.43 741.64 273.14 892.61 374.12C961.13 419.48 1012.43 496.15 1011.49 580.21ZM999.41 580.21C999.36 523.25 974.94 468.95 935.73 428.14C837.66 326.34 674.75 302.28 542.36 339.19C457.97 362.81 375.87 415.29 338.81 497.18C300.52 581.12 326.29 676.65 390.59 740.07C517.86 865.9 740.4 876.25 886.1 776.53C951.19 731.95 999.62 661.02 999.41 580.21Z" fill="black"/>
          <path id="Vector_3" d="M316.44 568.31C314.81 578.86 312.4 581.14 307.95 623.52C306.56 636.74 308.52 653.57 308.05 681.55C307.74 700.17 307.24 709.12 303.44 720.16C298.68 734 292.89 739.11 283.29 753.26C278.03 761.02 262.18 784.73 253.41 815.4C250.99 823.85 245.51 845.47 246.87 873.32C247.44 884.95 248.4 901.5 256.63 920.5C262.85 934.85 272.62 949.21 274.91 948.18C276.43 947.49 273.51 940.57 272.45 932.39C268.39 901.04 294 869.49 298.19 871.23C299.32 871.7 298.28 874.31 298.21 882.35C298.18 885.48 298.19 902.78 304.68 918.07C307.63 925.03 314.4 940.98 326.43 944.74C335.64 947.62 349.86 943.96 374.96 916.9C402.43 887.28 444.87 841.52 453.04 764.9C459.56 703.85 444.71 619.53 386.88 575.35C366.34 559.66 319.39 549.14 316.42 568.32L316.44 568.31Z" fill="#BE7750"/>
          <path id="Vector_4" d="M453.07 764.89C441.93 764.77 464.73 769.84 460.2 753.09C455.37 735.23 332.17 825.52 330.6 828.16C324.04 839.13 323.1 843.03 319.86 855.75C318.63 860.6 313.82 878.51 318.37 910.06C321.35 930.72 322.84 941.06 330.21 950.63C338.25 961.07 348.09 964.87 363.7 970.94C405.69 987.26 438.82 979.86 446.66 977.32C455.84 974.35 460.77 972.75 465.06 968.12C466.56 966.51 468.87 963.56 469.98 964.09C470.73 964.45 470.52 966.21 470.08 970.02C468.85 980.67 468.61 983.04 469.9 984.08C471.55 985.41 474.81 983.85 475.01 983.76C484.3 979.21 481.14 958.72 485.62 957.96C487.35 957.66 488.92 960.53 491.26 963.91C491.26 963.91 500.04 976.65 511.73 984.3C523.14 991.77 537.76 992.55 538.92 989.88C539.25 989.13 538.39 988.39 536.26 985.47C536.26 985.47 531.99 979.61 528.33 971.76C525.71 966.15 523.37 958.16 524.88 957.35C526.37 956.54 530.44 963.49 537.05 970.18C548.89 982.14 562.4 986.7 568.84 988.87C580.41 992.77 587.9 992.28 609.12 992.21C661.41 992.04 663.83 994.87 670.02 990.68C692.16 975.69 681.58 925.39 677.65 906.5C670.19 870.68 657.49 809.66 599.68 771.24C551.37 739.13 479.17 731.42 429.41 759.31C411.74 769.21 474.73 765.16 453.09 764.92L453.07 764.89Z" fill="#9D5431"/>
          <path id="Vector_5" d="M525.58 962.93C523.69 956.01 522.01 948.21 520.86 939.63C518.53 922.23 519.09 906.88 520.54 894.67M571.88 919.86C573 931.11 575.09 944.18 578.9 958.45C582.01 970.12 585.7 980.46 589.42 989.38" stroke="#762D0F" stroke-width="8.06" stroke-miterlimit="10" stroke-linecap="square"/>
          <path id="Vector_6" d="M322.36 555.14C316.97 589.49 312.44 624.38 312.68 659.09C312.65 667.9 313.63 676.47 314.1 685.28C314.47 694.52 313.71 703.93 311.49 713.05C309.27 722.21 305.72 731.07 300.57 739.02C298 742.99 295.19 746.56 292.56 750.02C291.53 751.29 289.67 753.92 288.69 755.22C277.79 771.08 268.71 788.39 261.92 806.39C245.47 851.52 247.52 907.34 275.48 947.52C276.51 948.96 277.7 950.42 278.88 951.6C278.88 951.6 274.01 956.1 274.01 956.06C269.6 946.8 268.22 936.45 268.04 926.31C267.73 912.07 271.4 897.85 278.63 885.56C280.7 882.03 283.02 878.64 285.68 875.44C288.74 871.96 291.58 868.71 295.87 866.43L303.72 862.46L303.54 871.35C302.7 879.22 302.68 887.41 303.17 895.32C305.04 921.7 324.84 942.51 345.56 957.23C372.12 975.12 438.17 985.9 464.22 964.13L464.87 963.5L465.35 963.03C465.74 962.66 466.79 961.92 467.7 961.83C468.53 961.67 469.58 961.85 470.26 962.24C471.86 963.13 472.31 964.33 472.75 965.51C473.3 967.25 473.42 968.62 473.6 970.28C474.05 976.19 474.17 982 472.62 987.76L469.8 983.37C475.82 981.03 482.02 962.51 484.09 956.16L486.97 947.53L491.33 956.02C499.21 969 510.44 980.55 524.67 986.37C528.42 987.8 532.63 989.32 536.54 988.69C536.62 988.67 536.6 988.65 536.42 988.83C536.31 988.93 536.21 989.08 536.09 989.31C535.99 989.54 535.93 989.81 535.93 990.01C535.94 990.42 536.01 990.4 535.94 990.3C535.89 990.19 535.79 990 535.64 989.77C532.31 985.32 528.43 980.93 525.97 975.89C523.69 971.38 522.66 966.35 521.36 961.47C521 959.91 520.55 958.42 520.54 956.73C520.61 953.54 524.25 951.96 526.57 953.78C526.85 953.99 526.87 954.03 526.98 954.13C527.33 954.44 527.55 954.81 527.79 955.15L528 955.49C528.06 955.6 528.06 955.58 528.1 955.63L528.26 955.85C530.3 958.5 532.71 960.91 535.16 963.27C539.03 966.89 543.14 970.29 547.49 973.33C553.91 977.65 560.48 982.08 567.92 984.11C575.51 985.98 583.41 985.91 591.38 986.02C603.6 986.15 660.74 984.8 673.76 984.65L673.73 996.73L640.78 996.19C620.68 995.72 594 996.48 574.3 994.36C568.49 993.65 562.32 991.99 557.13 989.15C552.02 986.35 547.29 983.3 542.72 979.88C535.87 974.72 529.54 968.98 524.02 962.36C523.22 961.36 522.29 960.2 521.62 959.05C521.61 959.03 521.6 959.02 521.62 959.05C521.68 959.14 521.78 959.24 521.88 959.34C521.96 959.41 521.95 959.41 522.19 959.6C522.5 959.79 522.34 959.76 523.06 960.07C523.67 960.26 524.33 960.49 525.73 959.99C527.2 959.22 527.38 958.68 527.77 957.53C527.82 957.35 527.84 957.07 527.84 957.05V956.89C528.41 960.22 529.8 963.9 530.87 967.3C531.68 969.81 532.41 972.02 533.59 974.38C535.24 977.97 537.12 981.41 539.44 984.67C540.47 986.38 541.89 987.69 541.92 990.09C541.05 999.84 519.39 992.73 514.08 990.25C500.57 984.35 489.49 972.74 484.15 959L491.38 958.85C490.41 961.36 489.09 964.87 488.05 967.32C484.79 974.49 480.39 986.16 472.81 989.66C471.7 990.13 470.25 990.4 468.81 990.19L464.95 989.63C465.57 987.47 466.4 984.54 466.66 982.32C467.15 977.53 467.13 972.35 466.13 967.68C466.09 967.55 466 967.41 466.16 967.67C466.26 967.79 466.41 968.07 467.04 968.42C467.48 968.66 468.3 968.83 468.86 968.7C469.26 968.68 470.08 968.22 470.12 968.12L470.17 968.07L470.08 968.16L469.88 968.36C463.51 974.98 455.02 979.64 446.3 982C414.55 990.17 365.71 982.05 338.83 963.16C319.3 948.62 300.76 929.28 295.66 904.57C293.55 893.49 293.86 882.33 292.86 871.1C292.86 871.08 300.53 876.01 300.53 876.01C298.11 877.5 295.74 879.98 293.84 882.27C285.92 891.79 280.96 903.69 279.06 915.9C276.68 927.73 276.2 940.33 279.79 951.95C279.92 952.34 280.08 952.79 280.17 953.03L285.92 964.14L275.3 957.51C273.07 956.06 271.39 953.96 269.71 951.99C265.4 946.64 261.73 940.85 258.51 934.82C241.51 902.64 238.29 864.48 244.91 829.04C249.87 802.39 261.64 777.41 275.86 754.5C282.57 743.55 292.01 734.17 296.59 722.11C301.3 710.63 303.04 698.23 302.45 685.78C302.27 681.47 301.75 677.16 301.44 672.78C299.93 650.46 301.31 627.98 303.46 605.92C305.26 588.27 307.65 570.72 310.41 553.26L322.34 555.16L322.36 555.14Z" fill="black"/>
          <path id="Vector_7" d="M976.99 544.08C986.99 548.03 1000.17 555.25 1006.88 568.82C1012.52 580.22 1011.15 591.13 1010.5 598.59C1010.08 603.51 1012.55 627.9 1017.51 676.68C1020.88 709.82 1023.15 732.19 1032.29 759.32C1043.53 792.69 1054.34 824.76 1083.36 841.69C1109.33 856.84 1120.61 863.33 1142.73 865.63C1145.08 865.87 1140.81 870.26 1136.74 874.79C1133.39 878.52 1126.76 884.87 1115.39 889.58C1108.02 892.63 1090.42 899.93 1074.62 892.94C1065.6 888.95 1061.45 882.21 1059.47 883.6C1056.6 885.61 1063.85 900.87 1065.69 904.75C1074.7 923.73 1082.9 930.42 1080.24 935.13C1078.17 938.81 1071.11 938.39 1062.99 937.92C1055.51 937.48 1043.32 936.76 1033.54 928.83C1020.31 918.09 1020.16 901.16 1016.53 901.65C1013.47 902.07 1015.21 913.83 1009.32 927.43C1004.29 939.05 995.88 946.94 991.35 950.09C968.87 965.71 928.16 943.54 924 941.27C842.19 896.7 809.23 652.02 918.14 569.8C939.51 553.67 961.96 547.1 977.01 544.07L976.99 544.08Z" fill="#BE7750"/>
          <path id="Vector_8" d="M878.23 783.87C888.99 783.75 876.85 742.02 881.23 725.28C885.89 707.42 989.43 825 990.95 827.64C997.28 838.61 998.2 842.51 1001.32 855.23C1002.51 860.08 1007.15 877.99 1002.76 909.54C999.88 930.2 998.44 940.54 991.33 950.11C983.56 960.55 974.07 964.35 959 970.42C918.45 986.74 886.47 979.34 878.9 976.8C870.04 973.83 865.28 972.23 861.13 967.6C859.69 965.99 857.45 963.04 856.38 963.57C855.65 963.93 855.85 965.69 856.28 969.5C857.47 980.15 857.7 982.52 856.45 983.56C854.86 984.89 851.7 983.33 851.51 983.24C842.54 978.69 845.59 958.2 841.27 957.44C839.6 957.14 838.08 960.01 835.83 963.39C835.83 963.39 827.35 976.13 816.07 983.78C805.06 991.25 790.94 992.03 789.82 989.36C789.5 988.61 790.33 987.87 792.39 984.95C792.39 984.95 796.51 979.09 800.05 971.24C802.58 965.63 804.84 957.64 803.39 956.83C801.95 956.02 798.02 962.97 791.64 969.66C780.21 981.62 767.16 986.18 760.95 988.35C749.77 992.25 742.55 991.76 722.06 991.69C671.57 991.52 669.24 994.35 663.26 990.16C641.88 975.17 652.1 924.87 655.89 905.98C663.09 870.16 675.36 809.14 731.18 770.72C777.83 738.61 855.33 720.16 895.58 758.79C910.48 773.09 857.35 784.15 878.25 783.9L878.23 783.87Z" fill="#9D5431"/>
          <path id="Vector_9" d="M802.69 962.41C804.52 955.49 806.14 947.69 807.25 939.11C809.5 921.71 808.95 906.36 807.56 894.15M757.99 919.34C756.91 930.59 754.89 943.66 751.22 957.93C748.22 969.6 744.65 979.94 741.06 988.86" stroke="#762D0F" stroke-width="8.06" stroke-miterlimit="10" stroke-linecap="square"/>
          <path id="Vector_10" d="M1010.64 552.75C1015.47 583.73 1018.44 615.18 1020.51 646.41C1021.26 657.13 1021.96 667.57 1023.66 678.03C1025.22 690.29 1026.81 703.43 1029.07 715.47C1030.48 723.1 1032.38 730.81 1033.76 738.39C1035.84 748.86 1037.5 759.05 1040.88 768.97C1050.08 796.89 1067.43 821.71 1089.93 840.56L1094.36 844.16C1102.94 851.45 1112.51 856.11 1123.54 858.51C1133.84 860.89 1145.5 860.96 1156.16 860.98C1152.94 864.54 1148.28 870.47 1144.93 873.57C1134.07 884.08 1121.41 892.84 1106.72 897.25C1088.71 902.67 1071.32 898.34 1057.11 886.33L1062.93 882.61C1065.78 891.27 1068.48 900.1 1072.31 908.39C1075.73 915.57 1081.24 925.51 1085 932.61L1088.15 938.49L1081.69 940.33C1061.99 945.9 1045.08 944.53 1029.12 930.85C1020.76 923.42 1015.04 913.34 1012.32 902.56L1020.74 902.58C1017.63 916.82 1014.02 931.16 1006.4 943.85C1001.09 952.96 992.33 959.8 984.32 966.09C966.88 979.77 938.32 985.89 916.53 985.9C896.06 985.21 873.22 983.49 857.33 969L855.97 967.63C857.01 968.78 859.53 968.61 860.42 967.11C859.87 969.51 859.74 973.02 859.75 975.8C859.75 978.45 859.89 981.21 860.46 983.8C860.75 985.33 861.72 988.07 862.1 989.47L857.61 990.14C846.12 991.73 837.67 967.17 834.98 958.51L843.43 958.68C838.43 969.02 830.27 977.6 820.98 984.21C816.29 987.42 811.31 990.04 806.08 992.27C801.96 993.93 797.63 995.36 792.96 995.2C790.26 995.2 786.46 993.64 786.06 990.33C785.79 988.27 786.43 987.25 787.14 985.92C788.28 984.05 789.63 982.5 790.79 980.8C793.28 977.25 795.46 973.38 796.79 969.27C798.02 965.08 799.39 960.64 800.13 956.38C800.14 956.33 800.13 956.23 800.13 956.54L800.15 956.74C800.16 956.85 800.18 956.93 800.2 957.06C800.9 960.17 804.91 961 806.78 958.78C807 958.51 806.91 958.61 806.9 958.65L806.6 959.16C797.98 971.53 779.52 986.87 765.36 991.89C757.18 994.53 748.45 994.76 740.18 995.12C713.31 995.74 686.48 995.63 659.67 996.2L659.64 984.12C682.47 984.11 733.69 986.53 755.48 984.58C760.44 984.01 764.77 982.78 769.14 980.38C780.28 974.25 790.75 966.09 798.92 956.31C799.44 955.67 799.69 955.35 800.09 954.7C800.25 954.44 800.33 954.26 800.77 953.73C800.82 953.67 800.94 953.54 801.03 953.45C801.15 953.34 801.15 953.31 801.45 953.07C801.81 952.83 801.68 952.83 802.5 952.47C803.22 952.24 803.99 951.95 805.59 952.55C808.7 954.06 808.08 957.23 807.44 959.71C806.64 963.03 805.58 966.41 804.56 969.64C802.95 975.12 799.98 980.18 796.93 984.97C795.81 986.73 794.47 988.41 793.58 990.1C793.95 989.25 793.28 987.76 792.52 987.44C796.17 988.05 800.19 987.05 803.9 986.09C813.79 983.36 821.87 976.42 827.79 968.19C830.54 964.38 832.91 960.32 834.78 956.03L835.07 955.31L839.45 944.4L843.52 955.48C845.49 960.72 847.58 966.6 849.81 971.69C851.5 975.53 853.58 980.13 856.47 982.41L853.28 987.35C852.9 985.92 852.76 984.76 852.54 983.37C852.02 979.63 852.14 975.8 852.35 972.04C852.73 968.69 852.56 963.6 855.96 961.6C857.78 960.52 860.26 961.37 861.31 962.68C865.33 967.12 870.41 970.23 876.05 972.53C884.39 975.91 893.51 977.51 902.53 978.04C907.1 978.28 911.7 978.06 916.27 977.73C934.26 976.3 952.9 973.34 969.05 965.21C972.99 963.27 976.7 960.74 980.06 957.95C983.8 954.99 987.46 952.21 990.64 949.19C1004.02 936.62 1008.13 918.12 1012.33 900.76L1016.58 882.3C1016.93 883.54 1020.94 902.19 1021.32 902.86C1024.84 913.76 1031.91 924.29 1042.46 929.3C1053.99 933.92 1066.95 933.19 1078.8 929.97L1075.49 937.68C1073.2 933.01 1067.79 923.48 1065.77 918.92C1062.88 912.29 1060.82 905.26 1059.31 898.19C1057.8 890.51 1054.78 880.4 1052.89 872.72L1061.83 880.91C1088.9 905.72 1121.89 885.96 1142.05 862.64L1145.76 870.54C1125.43 870.92 1103.77 865.82 1088.01 852.25C1065.73 835.01 1047.28 812.55 1035.91 786.69C1032.7 779.43 1029.64 771.49 1027.63 763.83C1024.6 752.22 1022.85 740.79 1020.23 729.31C1016.68 714.08 1014.43 698.08 1012.46 682.58C1008.17 655.43 1007.87 627.94 1004.7 600.78C1003.09 585.34 1001.1 569.95 998.71 554.61L1010.65 552.77L1010.64 552.75Z" fill="black"/>
          <path id="Vector_11" d="M621.2 94.0701C621.2 94.0701 605.43 111.91 594.6 135C577.98 170.43 586.98 216.08 588.78 222.56C605.61 283.19 660.1 307.06 665.33 311.73C666.9 313.13 660.32 307.61 653.12 291.57C653.12 291.57 638.04 257.95 627.01 209.51C611.88 143.07 621.2 94.0801 621.2 94.0801V94.0701Z" fill="#BE7750" stroke="black" stroke-width="12.08" stroke-miterlimit="10"/>
          <path id="Vector_12" d="M690.06 1053.34C678.11 1055.8 654.15 1056.45 641.31 1053.34C628.23 1050.17 613.89 1013.05 616.98 995.98C621.98 968.37 616.98 923.05 616.98 923.05C616.98 909.17 627.87 897.92 641.31 897.92H690.06C703.49 897.92 714.39 909.17 714.39 923.05C714.39 923.05 708.32 980.45 714.39 998C718.93 1011.11 708.32 1049.59 690.06 1053.34Z" fill="#D6AB82" stroke="black" stroke-width="12.08" stroke-miterlimit="10"/>
          <path id="Vector_13" d="M665.43 988.86C693.044 988.86 715.43 975.415 715.43 958.83C715.43 942.245 693.044 928.8 665.43 928.8C637.816 928.8 615.43 942.245 615.43 958.83C615.43 975.415 637.816 988.86 665.43 988.86Z" fill="black"/>
          <path id="Vector_14" d="M967.21 687.38C967.13 547.38 824.32 411.12 663.46 419.76C506.73 428.17 399.85 570.55 390.7 694.39C388.86 719.26 387.79 786.43 430.23 847.99C501.1 950.8 634.44 952.54 663.46 952.92C690.79 953.28 762.65 953.25 834.56 906.72C842.78 901.4 967.29 818.17 967.21 687.38Z" fill="#FBF5C0"/>
          <g id="right_x5F_cheek" opacity="0.75">
            <path id="Vector_15" d="M501.58 773.67L486.41 791.29C484.69 793.23 481.73 790.79 483.3 788.73L497.68 770.46C499.85 767.85 503.73 771.03 501.58 773.67ZM520.57 785.1L510.25 805.99C509.05 808.29 505.61 806.69 506.6 804.29L515.98 782.96C517.44 779.88 521.99 782 520.56 785.1H520.57Z" fill="#B34718"/>
          </g>
          <g id="left_x5F_cheek" opacity="0.76">
            <path id="Vector_16" d="M828.19 774.97L835.17 783.83L842.58 793.24C842.9 793.654 843.047 794.177 842.988 794.698C842.93 795.218 842.671 795.695 842.266 796.028C841.862 796.361 841.344 796.523 840.822 796.481C840.3 796.438 839.815 796.194 839.47 795.8L824.3 778.18C822.16 775.55 826.01 772.36 828.2 774.97H828.19ZM809.88 787.47L819.26 808.8C820.25 811.2 816.82 812.81 815.61 810.5L805.29 789.61C803.87 786.52 808.41 784.39 809.87 787.47H809.88Z" fill="#B34718"/>
          </g>
          <path id="Vector_17" d="M953.26 686.33C939.71 539.73 823.51 419.75 663.46 419.75C503.41 419.75 396.4 557.12 386.9 704.04C377.35 851.82 500.59 952.91 663.46 952.91C826.33 952.91 967.21 837.28 953.26 686.33Z" stroke="black" stroke-width="12.08" stroke-miterlimit="10"/>
          <path id="Vector_18" d="M658.41 704.14C658.25 715.39 657.91 727.29 651.98 737.42C644.99 747.87 637.59 758.6 627.01 765.85L626.91 765.92C626.9 765.93 626.95 765.9 626.97 765.89C627.41 765.62 627.82 764.94 627.9 764.48C628 763.9 627.89 763.88 627.97 764.06C629.61 767.46 633.07 770.64 635.88 773.27C641.02 777.78 646.87 782.09 652.64 785.93C654.59 787.22 656.59 788.45 658.54 789.46C659.6 789.93 660.08 791.21 659.53 792.25C659.13 793.02 658.3 793.42 657.48 793.32C654.76 792.97 652.33 792.14 649.94 791.25C642.8 788.43 636.33 784.66 630.29 779.79C625.65 775.68 615.7 767.08 620.54 760.17C621.06 759.51 621.65 759.01 622.34 758.57C625.19 756.76 627.81 754.71 630.36 752.41C636.01 747.37 641.06 741.31 645.77 735.28C649.8 730.43 651.44 724.42 652.9 718.14C653.93 713.51 654.62 708.74 655.26 703.95C655.51 702.04 658.39 702.14 658.42 704.14H658.41Z" fill="#B34718"/>
        </g>
        <g id="neutral_mouth">     <path id="neutral_mouth_lips" d="M569.19 819.76C607.85 847.49 659.11 856.36 704.45 841.34C719.5 836.53 733.81 829.35 746.78 820.31C748.24 819.27 750.28 819.63 751.3 821.1C752.29 822.51 751.98 824.44 750.65 825.5C747.39 828.07 744.03 830.51 740.54 832.75C730.12 839.59 718.83 845.04 707.03 849.09C675.57 860.08 640.28 859.83 608.95 848.47C593.36 842.77 578.67 834.68 565.84 824.15C563.19 821.88 566.24 817.78 569.19 819.77V819.76Z" fill="#DA9562"/>
          <path id="neutral_mouth_skin"d="M572.932 807.602C596.299 797.571 617.831 811.512 657.464 813.048C703.324 814.823 726.767 797.919 750.953 810.913C763.374 817.579 766.771 830.344 767.754 833.807C774.801 858.499 749.839 881.077 745.677 884.53C707.748 915.963 617.776 915.298 575.915 885.684C569.251 880.968 543.983 855.797 551.324 830.725C553.99 821.609 561.823 812.383 572.932 807.613V807.602Z" fill="#FBF5C0" />
     
        </g>
        <g id="open_mouth">
		  <path id="open_mouth_inside" d="M578.76 810.96C600.15 801.75 619.86 814.55 656.14 815.96C698.12 817.59 719.58 802.07 741.72 814C753.09 820.12 756.2 831.84 757.1 835.02C763.55 857.69 740.7 878.42 736.89 881.59C702.17 910.45 619.81 909.84 581.49 882.65C575.39 878.32 552.26 855.21 558.98 832.19C561.42 823.82 568.59 815.35 578.76 810.97V810.96Z" fill="#B33428"/>
          <g id="mouth_inside">
            <path id="open_mouth_tough" d="M587.36 886.37C626.47 909.11 699.31 909.08 733.81 883.98C718.09 869.92 699.43 860.58 660.58 860.58C621.73 860.58 596.43 872.59 587.36 886.37Z" fill="#F29597"/>
            <path id="open_mouth_teeth" d="M714.85 818.71V812.62C714.85 811.71 714.66 810.84 714.39 810C699.34 811.7 681.49 816.95 656.15 815.96C633.13 815.07 616.8 809.6 602.46 808.07C601.63 809.44 601.11 810.97 601.11 812.62V818.71C601.11 824.22 627.12 831.8 644.22 831.87C661.74 831.94 650.63 831.92 666.47 831.87C698.04 831.78 714.85 824.22 714.85 818.71Z" fill="white"/>
          </g>
       
		       <path id="open_mouth_skin" d="M578.76 810.96C600.15 801.75 619.86 814.55 656.14 815.96C698.12 817.59 719.58 802.07 741.72 814C753.09 820.12 756.2 831.84 757.1 835.02C763.55 857.69 740.7 878.42 736.89 881.59C702.17 910.45 619.81 909.84 581.49 882.65C575.39 878.32 552.26 855.21 558.98 832.19C561.42 823.82 568.59 815.35 578.76 810.97V810.96Z"  />   <path id="open_mouth_lips" d="M578.76 810.96C600.15 801.75 619.86 814.55 656.14 815.96C698.12 817.59 719.58 802.07 741.72 814C753.09 820.12 756.2 831.84 757.1 835.02C763.55 857.69 740.7 878.42 736.89 881.59C702.17 910.45 619.81 909.84 581.49 882.65C575.39 878.32 552.26 855.21 558.98 832.19C561.42 823.82 568.59 815.35 578.76 810.97V810.96Z" stroke="#DA9562" stroke-width="5"/>
        
        </g>
        <g id="left_eye_open">
          <path id="Vector_31" d="M727.64 684.99C728.34 653.41 754.81 627.72 791.62 627.72C828.44 627.72 858.28 653.33 858.28 684.91C858.28 716.5 828.36 739.81 791.62 742.1C754 744.45 726.88 718.78 727.64 684.98V684.99Z" fill="white"/>
          <path id="Vector_32" d="M791.62 627.73C828.44 627.73 858.28 653.34 858.28 684.92V684.99H727.64C728.34 653.41 754.81 627.72 791.62 627.72V627.73Z" fill="#D2B4A8"/>
          <path id="Vector_33" d="M782.93 725.29C803.867 725.29 820.84 708.317 820.84 687.38C820.84 666.443 803.867 649.47 782.93 649.47C761.993 649.47 745.02 666.443 745.02 687.38C745.02 708.317 761.993 725.29 782.93 725.29Z" fill="#D29D27" stroke="#6F5C18" stroke-width="12.08" stroke-miterlimit="10"/>
          <path id="Vector_34" d="M782.93 674.07C792.418 674.07 800.11 669.1 800.11 662.97C800.11 656.84 792.418 651.87 782.93 651.87C773.442 651.87 765.75 656.84 765.75 662.97C765.75 669.1 773.442 674.07 782.93 674.07Z" fill="white"/>
          <path id="Vector_35" d="M769.66 607.35C756.85 612.5 744.72 618.26 734.68 627.82C731.27 630.97 728.16 634.38 725.09 637.93C723.64 639.6 720.88 637.99 721.62 635.91C726.75 621.45 739.32 609.74 753.92 605.11C758.84 603.62 763.99 602.85 769.09 603.37C770.23 603.49 771.06 604.5 770.95 605.64C770.87 606.43 770.35 607.08 769.66 607.36V607.35Z" fill="#B34718"/>
          <path id="left_eye_open_lash" d="M852.27 687.9C848.57 674.3 841.27 661.19 830.63 651.92C815.03 637.86 791.45 631.98 770.78 637.53C748.54 643.23 733.12 663.15 728.6 685.56C728.2 687.56 726.25 688.85 724.25 688.44C723.331 688.25 722.518 687.718 721.978 686.951C721.437 686.184 721.209 685.239 721.34 684.31C722.541 675.856 725.044 667.638 728.76 659.95C742.16 631.34 775.34 615.49 806.25 620.75C828.88 624.19 849.77 639.37 858.88 660.48C862.53 668.82 864.59 677.72 864.31 686.85C863.86 693.97 853.92 694.76 852.27 687.91V687.9Z" fill="black"/>
          <path id="left_eye_open_lid" d="M852.27 687.9C848.57 674.3 841.27 661.19 830.63 651.92C815.03 637.86 791.45 631.98 770.78 637.53C748.54 643.23 733.12 663.15 728.6 685.56C728.2 687.56 726.25 688.85 724.25 688.44C723.331 688.25 722.518 687.718 721.978 686.951C721.437 686.184 721.209 685.239 721.34 684.31C722.541 675.856 725.044 667.638 728.76 659.95C742.16 631.34 775.34 615.49 806.25 620.75C828.88 624.19 849.77 639.37 858.88 660.48C862.53 668.82 864.59 677.72 864.31 686.85C863.86 693.97 853.92 694.76 852.27 687.91V687.9Z" fill="black"/>
        </g>
        <g id="left_eye_halfopen">
          <path id="left_eye_halfopen_lid" d="M720.69 686.16C725.18 688.66 731.41 675.97 752.06 665.38C759.09 661.78 777.61 652.57 800.09 655.19C816.74 657.13 829.13 664.82 839.25 671.1C859.46 683.64 866 695.09 870.88 692.59C876.68 689.62 873.41 670.41 868.57 657.55C866.31 651.54 859.41 633.92 841.01 621.13C807.43 597.77 768 613.04 764.84 614.32C746.15 621.91 736.04 634.39 734.06 636.9C718.91 656.13 714.66 682.81 720.68 686.17L720.69 686.16Z" fill="#FBF5C0"/>
          <path id="left_eye_halfopen_lash" d="M853.97 691.6C839 681.67 825.74 670.8 808.81 665.88C790.82 660.43 771.61 662.67 754.05 670.46C747.16 673.42 740.7 677.37 734.63 681.82C732.2 683.62 729.75 685.59 727.59 687.52C726.09 688.95 723.67 688.86 722.29 687.3C721.684 686.615 721.353 685.73 721.362 684.815C721.372 683.901 721.72 683.022 722.34 682.35C724.65 679.85 726.94 677.65 729.36 675.44C734.21 671 739.34 666.91 744.91 663.34C764.95 650.83 789.62 642.62 813.35 648.47C831.84 652.7 847.73 664.75 859.55 679.11C860.61 680.41 861.58 681.67 862.61 683.14C866.5 688.87 859.56 695.59 853.97 691.59V691.6Z" fill="black"/>
        </g>
        <g id="left_eye_close">
          <path id="left_eye_close_lid" d="M713.85 687.03C714.55 655.45 744.84 613.42 792.02 615.19C828.81 616.57 868.18 652.69 868.18 684.28C868.18 715.87 828.65 741.83 791.9 744.12C754.28 746.47 713.1 720.82 713.85 687.03Z" fill="#FBF5C0"/>
          <path id="left_eye_close_lash" d="M726.71 697.84C740.63 712.42 763.93 722.71 784 723.38C810.45 723.73 836.31 710.22 849.31 687.14C853.19 680.18 863.63 684.15 861.93 691.9C858.33 706.57 847.88 718.76 835.42 726.81C820.74 736.33 802.94 740.24 785.66 739.29C761.14 737.35 734.37 723.12 720.04 703.01C717.17 698.61 723.17 693.96 726.71 697.84Z" fill="black"/>
        </g>
        <g id="right_eye_open">
          <path id="Vector_36" d="M597.13 684.94C596.43 653.36 569.96 627.67 533.15 627.67C496.33 627.67 466.49 653.28 466.49 684.86C466.49 716.45 496.41 739.76 533.15 742.05C570.77 744.4 597.89 718.73 597.13 684.93V684.94Z" fill="white"/>
          <path id="Vector_37" d="M533.14 627.68C496.32 627.68 466.48 653.29 466.48 684.87V684.94H597.12C596.42 653.36 569.95 627.67 533.14 627.67V627.68Z" fill="#D2B4A8"/>
          <path id="Vector_38" d="M579.75 687.32C579.75 708.26 562.78 725.23 541.84 725.23C520.9 725.23 503.93 708.26 503.93 687.32C503.93 666.38 520.9 649.41 541.84 649.41C562.78 649.41 579.75 666.38 579.75 687.32Z" fill="#D29D27" stroke="#6F5C18" stroke-width="12.08" stroke-miterlimit="10"/>
          <path id="Vector_39" d="M541.84 674.02C551.328 674.02 559.02 669.05 559.02 662.92C559.02 656.79 551.328 651.82 541.84 651.82C532.352 651.82 524.66 656.79 524.66 662.92C524.66 669.05 532.352 674.02 541.84 674.02Z" fill="white"/>
          <path id="Vector_40" d="M555.67 603.31C571.18 601.98 586.39 610.6 595.79 622.57C598.95 626.6 601.49 631.08 603.14 635.86C603.51 636.93 602.94 638.09 601.87 638.46C601.06 638.74 600.2 638.48 599.67 637.88C593.73 630.91 587.15 624.42 579.51 619.42C575.79 616.95 571.88 614.81 567.82 612.85C563.75 610.85 559.51 609.17 555.07 607.29C553.11 606.48 553.57 603.5 555.67 603.32V603.31Z" fill="#B34718"/>
          <path id="right_eye_open_lash" d="M460.46 686.8C459.67 659.02 479.37 633.13 505.33 624.13C530.59 614.82 560.93 620.66 580.6 639.05C593.41 650.85 601.02 667.32 603.44 684.28C603.98 688.98 597.23 690.15 596.18 685.53C592.29 666.75 581.16 649.78 564.25 641.34C541.7 630.19 512.4 635.41 494.15 651.88C483.51 661.15 476.21 674.27 472.51 687.86C470.85 694.76 460.88 693.86 460.47 686.8H460.46Z" fill="black"/>
          <path id="right_eye_open_lid" d="M460.46 686.8C459.67 659.02 479.37 633.13 505.33 624.13C530.59 614.82 560.93 620.66 580.6 639.05C593.41 650.85 601.02 667.32 603.44 684.28C603.98 688.98 597.23 690.15 596.18 685.53C592.29 666.75 581.16 649.78 564.25 641.34C541.7 630.19 512.4 635.41 494.15 651.88C483.51 661.15 476.21 674.27 472.51 687.86C470.85 694.76 460.88 693.86 460.47 686.8H460.46Z"/>
        </g>
        <g id="right_eye_halfopen">
          <path id="right_eye_halfopen_lid" d="M603.91 686.16C599.42 688.66 593.19 675.97 572.54 665.38C565.51 661.78 546.99 652.57 524.51 655.19C507.86 657.13 495.47 664.82 485.35 671.1C465.14 683.64 458.6 695.09 453.72 692.59C447.92 689.62 451.19 670.41 456.03 657.55C458.29 651.54 465.19 633.92 483.59 621.13C517.17 597.77 556.6 613.04 559.76 614.32C578.45 621.91 588.56 634.39 590.54 636.9C605.69 656.13 609.94 682.81 603.92 686.17L603.91 686.16Z" fill="#FBF5C0"/>
          <path id="right_eye_halfopen_lash" d="M461.99 683.15C478.29 660.74 503.8 644.68 532.28 646.69C552.18 648.09 572.18 657.11 587.78 669.09C592.98 673.21 597.7 677.47 602.27 682.35C602.933 683.068 603.283 684.02 603.246 684.996C603.209 685.973 602.786 686.895 602.07 687.56C601.38 688.196 600.475 688.545 599.537 688.538C598.599 688.53 597.699 688.167 597.02 687.52C592.59 683.58 587.51 679.86 582.43 676.71C557.28 661.02 526.56 657.7 500.5 672.2C490.55 677.57 480.49 684.95 470.43 691.74C464.79 695.47 458.18 688.7 462 683.15H461.99Z" fill="black"/>
        </g>
        <g id="right_eye_close">
          <path id="right_eye_close_lid" d="M612.34 686.5C611.64 654.92 581.35 612.89 534.17 614.66C497.38 616.04 458.01 652.16 458.01 683.75C458.01 715.34 497.54 741.3 534.29 743.59C571.91 745.94 613.09 720.29 612.34 686.5Z" fill="#FBF5C0"/>
          <path id="right_eye_close_lash" d="M606.28 702.59C592.24 721.96 566.99 735.64 543.36 738.5C517.81 741.28 491 731.23 475.04 710.73C470.51 704.95 466.88 698.49 464.44 691.6C463.85 689.936 463.946 688.106 464.705 686.512C465.465 684.918 466.826 683.691 468.49 683.1C471.65 681.98 475.08 683.39 476.6 686.26C482.12 696.74 490.42 705.56 500.33 711.63C510.35 717.75 521.84 721.12 533.49 722.42C551.57 724.54 569.84 718.25 585.15 708.77C590.42 705.46 595.35 701.57 599.39 697.1C603.13 693.14 609.31 698.01 606.28 702.58V702.59Z" fill="black"/>
        </g>
        <g id="Front_Hair">
          <g id="front_x5F_hair_x5F_right">
            <path id="Vector_41" d="M648.52 418.91C655.03 436.52 628.77 461.92 592.99 496.53C557.39 530.97 524.61 550.83 511.93 558.16C478.8 577.31 439.18 595.16 379.91 602.09C377.05 602.42 370.7 605.06 367.6 602.09C358.29 593.17 383.19 535.26 393 520.51C437.62 453.35 466.31 430.59 511.53 411.22C567.05 387.44 639.42 394.27 648.53 418.92L648.52 418.91Z" fill="#BE7750"/>
            <path id="Vector_42" d="M615.42 472.02C599.895 490.565 582.626 507.576 563.85 522.82C501.12 573.7 435.13 593.58 392.98 602.1" stroke="black" stroke-width="12.08" stroke-miterlimit="10" stroke-linecap="round"/>
          </g>
          <g id="front_x5F_hair_x5F_left">
            <path id="Vector_43" d="M670.29 418.91C663.78 436.52 690.04 461.92 725.82 496.53C761.42 530.97 794.2 550.83 806.88 558.16C840.01 577.31 879.63 595.16 938.9 602.09C941.76 602.42 948.11 605.06 951.21 602.09C960.52 593.17 935.62 535.26 925.81 520.51C881.19 453.35 852.5 430.59 807.28 411.22C751.76 387.44 679.39 394.27 670.28 418.92L670.29 418.91Z" fill="#BE7750"/>
            <path id="Vector_44" d="M703.38 472.02C718.904 490.565 736.174 507.576 754.95 522.82C817.68 573.7 883.67 593.58 925.82 602.1" stroke="black" stroke-width="12.08" stroke-miterlimit="10" stroke-linecap="round"/>
          </g>
          <g id="front_x5F_hair">
            <path id="Vector_45" d="M582.75 415.83C575.21 425.04 573.18 435.11 569.94 451.15C565.25 474.4 567.93 492.99 569.49 503.13C570.47 509.52 575.27 538.39 594.71 570.18C601.06 580.57 616.41 603.43 643.31 623.54C645.18 624.94 649.38 630.33 651.43 629.28C653.06 628.44 652.39 624.09 652 621.71C648.26 599.05 644.92 591.18 644.92 591.18C636.45 571.23 628.08 544.01 631.61 542.13C632.78 541.51 635.08 543.76 638.31 547.08C650.61 559.76 656.76 566.09 662.72 574.91C672.67 589.64 690.43 595.1 720.75 604.42C729.72 607.18 782.02 623.25 790.66 608.08C791.44 606.71 791.66 605.45 791.84 602.8C793.35 580.34 785.33 560.93 785.33 560.93C766.7 515.85 772.61 510.63 753.78 477.54C743.54 459.56 733.87 442.9 714.88 426.47C707.27 419.88 696.51 410.58 680.27 404.05C650.32 392.01 603.73 390.19 582.75 415.83Z" fill="#BE7750"/>
            <path id="Vector_46" d="M572.04 469.51C570.34 519.64 590.17 565.68 625.36 601.08C631.78 607.63 638.55 613.88 645.72 619.59C649.1 622.19 652.47 624.91 656.21 626.67C656.35 626.74 656.55 626.75 656.13 626.7C656.03 626.7 655.84 626.68 655.56 626.7C654.59 626.7 653.03 627.67 652.53 628.76C652.02 629.74 652.01 630.37 652.09 631.08C651.48 627.68 650.27 624.42 649.14 620.78C640.56 595.57 635.88 569.17 628.61 543.65L627.27 539.12C627.06 538.11 626.8 537.58 627.36 536.13C627.52 534.99 630.19 533.7 630.96 534.17C632.36 534.44 632.82 534.98 633.57 535.68C637.34 539.95 640.84 544.8 644.6 549.03C652.57 558.25 661 567.21 670.24 575.06C686.63 588.42 706.76 596.16 727.37 600.57C739.26 603.09 751.44 604.49 763.6 604.82C771.97 604.9 780.4 605.07 788.47 603.22C787.51 603.59 786.62 604.56 786.29 605.27C786.14 605.62 786.22 605.47 786.24 605.31C787.1 597.04 785.92 588.48 785.02 580.19C782.04 555.91 774.17 532.46 765.69 509.55C763.59 504 761.15 498.79 758.3 493.55L765.25 488.52C769.75 493.4 773.3 499.25 775.99 505.24C783.29 522.99 789.23 540.98 793.09 559.89C794.99 569.2 800.12 603.8 795.41 610.75C794.96 611.53 793.67 612.67 792.6 613.04L792.05 613.25L791.18 613.53C782.04 615.67 772.52 615.51 763.31 615.38C731.33 614.2 698.43 607.08 671.77 588.52C661.12 581.16 652.17 571.49 644.41 561.28C639.37 554.9 634.15 546.95 629.08 540.61L628.79 540.29C628.72 540.21 628.62 540.12 628.73 540.21C629.15 540.46 629.03 540.5 630.03 540.72C630.7 541.16 633.27 539.93 633.39 538.88C633.77 537.86 633.67 537.73 633.63 537.26C633.63 537.26 633.63 537.28 633.64 537.33C635.4 543.12 639.75 558.31 641.54 564.36L652.06 600.25C654.76 609.44 657.89 617.94 660.57 627.29C660.75 628.05 660.93 628.86 661.06 629.63C661.77 634.47 657.08 636.96 653 635.14C648.15 633.1 644.13 629.84 640.06 626.8C632.51 620.89 625.43 614.45 618.67 607.67C600.42 589.7 585.94 567.99 576.15 544.31C566.16 520.71 561.48 494.47 564.82 468.95L572.06 469.48L572.04 469.51Z" fill="black"/>
            <path id="Vector_47" d="M563.98 481.4C564.22 474.25 564.98 467.42 565.79 460.36C566.51 453.37 568.31 446.28 570.8 439.72C572.45 435.32 574.42 431.07 576.56 426.96C576.674 426.734 576.87 426.56 577.109 426.474C577.348 426.389 577.61 426.399 577.841 426.502C578.073 426.605 578.256 426.793 578.353 427.027C578.449 427.261 578.452 427.524 578.36 427.76C575.18 436.26 572.89 445.1 572.2 454.11C571.63 462.89 571.57 472.35 572.03 481.19C572.25 486.76 564.07 487 563.98 481.41V481.4ZM701.23 411.62C712.12 420.13 722.63 428.91 731.88 439.22C739.57 447.97 746.53 457.46 752.7 467.31C757.22 474.46 761.4 481.66 765.91 488.45C766.267 488.986 766.515 489.586 766.639 490.218C766.763 490.849 766.762 491.499 766.634 492.129C766.507 492.76 766.257 493.36 765.897 493.894C765.538 494.427 765.077 494.885 764.54 495.24C762.21 496.8 759.02 496.06 757.61 493.64C753.27 486.27 749.48 478.81 745.46 471.62C739.5 460.85 732.69 450.57 724.95 441.03C716.9 431.83 707.73 423.15 698.42 415.22C696.18 413.32 698.82 409.88 701.24 411.63L701.23 411.62Z" fill="#762D0F"/>
          </g>
          <g id="sidehair_x5F_left">
            <path id="Vector_48" d="M871.2 478.69C875.56 491.04 881.23 506.08 888.3 539.9C892.81 561.48 894.61 568.13 901.55 641.93C909.43 725.7 909.78 710.26 912.78 751.21C917.87 820.8 916.51 860.93 914.13 889.79C910.15 937.98 903.4 953.86 900.1 960.86C892.07 977.9 880.6 993.15 884.66 997.2C887.58 1000.11 896.72 995.41 904.32 991.51C923.14 981.84 935.01 969.75 938.48 966.13C957.85 945.91 967.85 925.85 970.62 920.09C985.31 889.53 988.36 861.76 989.76 843.81C996.43 758.27 983.07 672.57 972.56 616.99C954.14 519.58 940.58 494.25 916.95 481.94C901.83 474.07 867.24 467.47 871.2 478.68V478.69Z" fill="#BE7750"/>
            <path id="Vector_49" d="M898.99 570.58C899.82 579.46 900.51 588.38 901.61 597.21C902.14 601.63 902.74 606.02 903.38 610.45C904.03 614.88 904.69 619.38 905.28 623.9C905.87 628.42 906.39 632.94 906.88 637.45C907.37 641.98 907.76 646.53 908.17 650.97C908.99 659.91 909.9 668.86 910.83 677.78C912.66 695.63 914.77 713.56 916.43 731.56C918.1 749.56 919.4 767.62 920.16 785.71C920.94 803.78 921.06 821.96 920.79 839.99C920.53 858.04 920.12 876.15 918.52 894.31C917.71 903.39 916.55 912.47 914.9 921.5C914.47 923.75 914.07 926.01 913.56 928.25C913.08 930.49 912.6 932.74 912.03 934.96L911.21 938.3L910.3 941.62C909.7 943.85 909.08 946.02 908.45 948.17C905.88 956.79 903.49 965.51 899.99 974.24C899.13 976.41 898.19 978.53 897.23 980.62L895.79 983.77C895.31 984.83 894.8 985.81 894.31 986.83C892.34 990.89 890.42 994.97 888.5 999.06L884.64 992.87C887.13 992.81 889.86 992.35 892.41 991.63C893.69 991.27 894.93 990.84 896.05 990.35C897.31 989.76 898.66 989.14 899.94 988.52C902.51 987.22 905.07 985.88 907.54 984.39C910.02 982.92 912.41 981.3 914.78 979.66C919.47 976.31 923.97 972.68 928.15 968.7C932.33 964.72 936.22 960.49 939.84 955.97C940.335 955.348 940.947 954.83 941.643 954.445C942.338 954.061 943.103 953.817 943.893 953.729C944.682 953.641 945.482 953.709 946.245 953.931C947.008 954.152 947.72 954.523 948.34 955.02C948.96 955.516 949.477 956.129 949.86 956.825C950.243 957.521 950.485 958.286 950.573 959.075C950.66 959.865 950.591 960.664 950.369 961.426C950.147 962.189 949.777 962.9 949.28 963.52C949.17 963.65 949.05 963.79 948.94 963.91C944.65 968.42 940.15 972.81 935.35 976.79C930.57 980.81 925.55 984.54 920.29 987.89C917.64 989.54 914.97 991.16 912.21 992.62C909.48 994.13 906.68 995.5 903.85 996.81C902.42 997.45 901.01 998.05 899.53 998.67C897.938 999.3 896.304 999.818 894.64 1000.22C891.38 1001.01 888.14 1001.47 884.62 1001.46L877.6 1001.42L880.76 995.26C882.81 991.26 884.84 987.26 886.84 983.24C887.33 982.24 887.85 981.22 888.31 980.23L889.67 977.24C890.54 975.22 891.39 973.2 892.15 971.17C893.7 967.13 894.93 962.93 896.15 958.65L899.74 945.69C900.35 943.51 900.95 941.35 901.5 939.23L902.35 936.03L903.11 932.81C903.64 930.67 904.09 928.51 904.53 926.35C905 924.2 905.37 922.02 905.76 919.84C907.29 911.14 908.33 902.34 909.06 893.48C910.49 875.75 910.75 857.83 910.86 839.88C910.98 821.9 910.71 804.06 909.8 786.16C908.9 768.28 907.48 750.42 905.67 732.58C903.88 714.73 901.64 696.91 899.65 678.96C898.64 669.99 897.66 661.03 896.76 652.05C896.3 647.53 895.89 643.11 895.37 638.7C894.86 634.27 894.31 629.85 893.7 625.44C893.09 621.03 892.4 616.64 891.72 612.16C891.03 607.69 890.38 603.17 889.8 598.65C888.6 589.62 887.83 580.59 886.92 571.55C886.84 570.761 886.916 569.963 887.144 569.204C887.372 568.444 887.747 567.736 888.249 567.121C888.75 566.507 889.368 565.997 890.066 565.621C890.765 565.245 891.531 565.01 892.32 564.93C893.109 564.85 893.907 564.926 894.666 565.154C895.426 565.382 896.134 565.757 896.749 566.259C897.363 566.76 897.873 567.378 898.249 568.076C898.625 568.775 898.86 569.541 898.94 570.33V570.38L898.96 570.56L898.99 570.58Z" fill="black"/>
            <path id="Vector_50" d="M870.93 471.04C887.71 505.04 896.56 542.15 899.91 579.83L900.31 585.86L888.3 586.62C886.97 566.57 883.89 546.14 880.16 526.31C876.62 508.35 871.5 490.55 866.23 473.01L865.48 470.56L869.78 468.77L870.94 471.05L870.93 471.04ZM992.17 834.11C993.09 863.05 987.07 892.16 976.24 918.97C971.46 929.74 966.05 939.89 959.7 949.81C956.47 954.76 953.06 959.62 948.64 964.29L944.48 968.68L935.79 959.78L940.19 955.64C943.82 952.23 947.29 947.94 950.52 943.52C956.98 934.6 962.89 924.89 967.91 915.09C970.34 910.21 972.46 904.85 974.41 899.78C982.71 878.11 987.55 855.21 987.89 831.93H992.11L992.17 834.1V834.11Z" fill="#762D0F"/>
          </g>
          <g id="sidehair_x5F_right">
            <path id="Vector_51" d="M460.13 481.86C455.77 494.21 450.1 509.25 443.03 543.07C438.52 564.65 436.72 571.3 429.78 645.1C421.9 728.87 421.55 713.43 418.55 754.38C413.46 823.97 414.82 864.1 417.2 892.96C421.18 941.15 427.93 957.03 431.23 964.03C439.26 981.07 450.73 996.32 446.67 1000.37C443.75 1003.28 434.61 998.58 427.01 994.68C408.19 985.01 396.32 972.92 392.85 969.3C373.48 949.08 363.48 929.02 360.71 923.26C346.02 892.7 342.97 864.93 341.57 846.98C334.9 761.44 348.26 675.74 358.77 620.16C377.19 522.75 390.75 497.42 414.38 485.11C429.5 477.24 464.09 470.64 460.13 481.85V481.86Z" fill="#BE7750"/>
            <path id="Vector_52" d="M444.74 574.53C439.47 610.21 435.21 645.86 431.54 681.72C425.01 735.31 419.51 788.83 420.36 842.87C420.58 878.56 421.31 914.47 431.51 948.84C434.58 959.75 436.91 970.39 441.63 980.42C443.59 984.79 448.45 994.1 450.59 998.44L453.77 1004.73H446.67C436.63 1004.86 427.65 1000.45 419.12 995.67C407.35 988.96 396.94 980.25 387.02 971.16C385.26 969.71 383.52 968.23 381.93 966.63C376.25 960.75 384.4 952.33 390.45 957.76C392.05 959.44 392.69 961.8 394.39 963.37L395.18 964.15C406.05 974.81 417.64 985.06 431.39 991.73C436.03 994.21 441.44 995.91 446.67 995.99L442.75 1002.28C436.94 990.26 430.53 977.02 426.82 964.27C424.45 956.72 422.16 949.02 420.12 941.39C416.43 926.97 414.14 912.12 412.85 897.34C409.51 852.01 409.78 806.75 412.85 761.46C415.34 725.4 420.19 689.62 423.32 653.68C425.73 626.7 429.33 599.73 432.78 572.89C433.93 565.28 445.48 566.14 444.75 574.52L444.74 574.53Z" fill="black"/>
            <path id="Vector_53" d="M465.1 476.17C461.07 489.27 457.35 502.84 454.06 516.1C448.98 538.21 445.47 561.25 443.47 583.76L443.02 589.79L431.01 589.03C431.59 577.5 433.05 565.91 435.06 554.8C439.9 526.11 448.22 497.91 461.54 471.93L465.84 473.72L465.09 476.17H465.1ZM343.49 837.28C344.2 865.36 351.51 892.93 363.4 918.27C368.42 928.07 374.33 937.78 380.79 946.7C384.03 951.12 387.49 955.41 391.12 958.82L395.52 962.96L386.83 971.86C376.67 961.9 369.31 950.12 362.76 937.87C359.69 932.1 356.75 926.2 354.21 920.1C348.2 904.54 343.76 888.34 341.18 871.86C339.35 859.64 338.79 847.38 339.21 835.12H343.43L343.5 837.29L343.49 837.28Z" fill="#762D0F"/>
          </g>
          <g id="hair_x5F_bright" style="mix-blend-mode:lighten">
            <path id="Vector_54" d="M472.88 418.03C454.38 406 447.1 393.19 442.69 385.29C415.55 396.26 401.1 417.12 388.63 426.87C385.06 429.66 404.78 442.06 441.16 454.89C451.45 442.37 462.11 430.16 472.87 418.02L472.88 418.03ZM586.96 447.3C583.26 447.07 579.62 446.81 576.11 446.52C575.99 458.96 574.82 471.35 573.76 483.76C582.11 484.62 590.71 485.3 599.45 485.85C594.87 473.14 590.46 460.28 586.97 447.3H586.96ZM719.26 442.39C695.19 445.76 667.35 447.91 635.02 448.36C632.8 448.39 630.64 448.4 628.47 448.42C632.35 461.45 637.13 474.42 641.96 487.12C676.84 486.92 711.47 482.49 744.83 476.01C736.61 464.6 728.11 453.38 719.25 442.39H719.26ZM877.23 441.51C892.76 436.91 907.41 432.59 920.91 428.95C922.86 428.43 931.44 427.1 929.92 423.41C925.81 413.41 861.31 372.82 861.31 372.82C856.8 381.3 849.68 390.45 838.83 399.36C852.37 412.64 864.94 426.88 877.23 441.52V441.51ZM803.3 420.5C791.99 425.44 778.8 429.99 763.35 433.92C771.51 444.69 779.4 455.62 787.02 466.7C803.61 462.62 819.68 458.22 835.18 453.81C825.11 442.15 814.65 430.83 803.3 420.51V420.5Z" fill="#E59158"/>
          </g>
        </g>
        <g id="Eyebrows">
          <path id="Right_Eyebrow" d="M590.68 553.45C586.85 549.53 567.32 540.61 552.22 537.81C513.39 530.59 482.86 544.32 467.49 551.5C465.34 552.5 440.01 566.15 443.37 567.8C446.8 569.47 462.57 566.72 482.48 565.19C555.55 559.58 596.33 559.25 590.68 553.46V553.45Z" fill="#762D0F"/>
          <path id="Left_Eyebrow" d="M730.61 553.45C734.44 549.53 753.97 540.61 769.07 537.81C807.9 530.59 838.43 544.32 853.8 551.5C855.95 552.5 881.28 566.15 877.92 567.8C874.56 569.45 858.72 566.72 838.81 565.19C765.74 559.58 724.96 559.25 730.61 553.46V553.45Z" fill="#762D0F"/>
        </g>
        <g id="Hairclips">
          <path id="hairclip_x5F_2" d="M497.95 575.51L474.08 590.07C470.07 590.33 467.91 588.13 466.73 585.77L418.88 489.93C417.7 487.57 418.75 484.96 421.11 483.78L445.15 469.75C445.711 469.47 446.321 469.303 446.946 469.259C447.571 469.215 448.199 469.294 448.794 469.493C449.388 469.692 449.938 470.006 450.41 470.417C450.883 470.828 451.271 471.329 451.55 471.89L500.09 569.12C501.27 571.48 500.31 574.34 497.95 575.52V575.51Z" fill="#EF7820" stroke="#432918" stroke-width="8.06" stroke-miterlimit="10"/>
          <path id="hairclip_x5F_2_x5F_shadow" d="M496.74 570.62C497.07 571.31 496.48 572.34 495.41 572.96L473.75 585.47C472.6 586.13 471.34 586.08 470.97 585.35L462.17 567.77L488.23 554.52L496.74 570.62Z" fill="#D15618"/>
          <path id="hairclip_x5F_1" d="M557.4 537.47L535.44 554.78C531.49 555.51 529.08 553.59 527.63 551.39L468.66 461.96C467.21 459.76 467.94 457.04 470.14 455.59L492.33 438.78C494.53 437.33 497.49 437.94 498.94 440.14L558.76 530.86C560.21 533.06 559.6 536.02 557.4 537.47Z" fill="#EF7820" stroke="#432918" stroke-width="8.06" stroke-miterlimit="10"/>
          <path id="hairclip_x5F_1_x5F_shadow" d="M555.62 532.76C556.03 533.41 555.57 534.5 554.58 535.24L534.57 550.25C533.51 551.05 532.25 551.14 531.79 550.46L520.95 534.06L545.24 517.79L555.62 532.76Z" fill="#D15618"/>
        </g>
        <g id="Body">
          <path id="Vector_55" d="M350.39 1262.47C372.83 1264.44 395.31 1262.69 417.88 1264.43C432.64 1265.56 447.27 1267.88 461.77 1270.9C460.42 1278 458.94 1285.53 457.6 1294.17C456.12 1303.77 455.14 1311.18 454.07 1320.03C452.65 1331.78 450.78 1347.75 448.71 1367.25C432.69 1363.12 411.88 1371.27 388.38 1370.25C368.25 1369.37 342.41 1354.27 340.14 1368.93C344.23 1342.56 343.58 1324.15 345.29 1293.95C345.61 1288.29 350.31 1267.92 350.38 1262.47H350.39Z" fill="#FFF4C0"/>
          <path id="Vector_56" d="M348.68 1262.32C371.69 1264.55 394.74 1262.64 417.88 1264.42C431.92 1265.5 445.83 1267.66 459.63 1270.46C462.97 1284.71 455.15 1296.42 454.07 1320.02C454.07 1320.02 425.75 1308.94 390.58 1303.19C364.93 1299 344.52 1299.49 344.52 1299.49C351.24 1270.07 348.29 1272.03 348.67 1262.32H348.68Z" fill="#D6AB82"/>
          <path id="Vector_57" d="M460.2 1280.76C458.3 1294.96 456.44 1309.26 454.63 1323.65C453.34 1333.89 453.67 1349.73 453.28 1359.86M340.36 1364.6C340.36 1350.93 340.96 1326.31 342.61 1313.73C344.53 1299.1 346.56 1284.73 348.7 1270.6" stroke="black" stroke-width="12.09" stroke-miterlimit="10" stroke-linecap="square"/>
          <path id="Vector_58" d="M543.6 1005.18C541.56 1004.85 452.9 1032.49 416.78 1064.89C375.82 1101.65 317.18 1208.27 316.82 1250.3C316.82 1250.3 445.79 1301.6 496.65 1279.79C496.65 1279.79 570.44 1110.34 562.55 1042.06C562.55 1042.06 556.12 1007.22 543.6 1005.18Z" fill="#EF7922"/>
          <path id="Vector_59" d="M549.9 1003.87C492.25 1014.98 412.13 1053.68 386.9 1098.71C343.71 1175.8 323.27 1234.64 318.92 1245.19C316.81 1250.3 322.25 1252.2 323.51 1252.86C375.18 1279.67 469.75 1293.12 496.65 1279.79C496.65 1279.79 505.24 1265.3 508.43 1187.42" stroke="black" stroke-width="12.09" stroke-miterlimit="10" stroke-linecap="round"/>
          <path id="Vector_60" d="M346.77 1226.78C360.14 1233.04 379.94 1239.11 407.87 1243.91C437.62 1249.02 461.86 1252.1 483.92 1251.84" stroke="#BF4718" stroke-width="8.06" stroke-miterlimit="10" stroke-linecap="round"/>
          <path id="Vector_61" d="M335.91 1416.86C336.92 1399.47 338.13 1382.32 339.54 1365.42C359.25 1360.75 379.48 1358.64 399.73 1359.14C420.15 1359.64 437.63 1362.73 451.3 1366.15C451.39 1382.45 451.19 1399.07 450.67 1416C448.33 1492.07 439.86 1562.62 427.92 1626.9C427.92 1626.9 397.76 1633.01 334.05 1618.11C331.55 1554.5 331.83 1487.28 335.91 1416.87V1416.86Z" fill="#FFF4C0"/>
          <path id="Vector_62" d="M452.94 1366.52C451.07 1426.42 446.43 1490.07 437.99 1556.89C434.97 1580.79 431.59 1604.13 427.91 1626.89M334.04 1618.11C334.55 1575.46 335.33 1532.33 336.42 1488.73C337.45 1447.67 338.72 1407.04 340.22 1366.85" stroke="black" stroke-width="12.09" stroke-miterlimit="10" stroke-linecap="square"/>
          <path id="Vector_63" d="M977.59 1260.86C955.15 1262.83 932.67 1261.08 910.1 1262.82C895.34 1263.95 880.71 1266.27 866.21 1269.29C867.56 1276.39 869.04 1283.92 870.38 1292.56C871.86 1302.16 872.84 1309.57 873.91 1318.42C875.33 1330.17 877.2 1346.14 879.27 1365.64C895.29 1361.51 916.1 1369.66 939.6 1368.64C959.73 1367.76 985.57 1352.66 987.84 1367.32C983.75 1340.95 984.4 1322.54 982.69 1292.34C982.37 1286.68 977.67 1266.31 977.6 1260.86H977.59Z" fill="#FFF4C0"/>
          <path id="Vector_64" d="M979.3 1260.72C956.29 1262.95 933.24 1261.04 910.1 1262.82C896.06 1263.9 882.15 1266.06 868.35 1268.86C865.01 1283.11 872.83 1294.82 873.91 1318.42C873.91 1318.42 902.23 1307.34 937.4 1301.59C963.05 1297.4 983.46 1297.89 983.46 1297.89C976.74 1268.47 979.69 1270.43 979.31 1260.72H979.3Z" fill="#D6AB82"/>
          <path id="Vector_65" d="M867.78 1279.16C869.68 1293.36 871.54 1307.66 873.35 1322.05C874.64 1332.29 874.31 1348.13 874.7 1358.26M987.63 1363C987.63 1349.33 987.03 1324.71 985.38 1312.13C983.46 1297.5 981.43 1283.13 979.29 1269" stroke="black" stroke-width="12.09" stroke-miterlimit="10" stroke-linecap="square"/>
          <path id="Vector_66" d="M784.38 1003.57C786.42 1003.24 875.08 1030.88 911.2 1063.28C952.16 1100.04 1010.8 1206.66 1011.16 1248.69C1011.16 1248.69 882.19 1299.99 831.33 1278.18C831.33 1278.18 757.54 1108.73 765.43 1040.45C765.43 1040.45 771.86 1005.61 784.38 1003.57Z" fill="#EF7922"/>
          <path id="Vector_67" d="M778.08 1002.27C835.73 1013.38 915.85 1052.08 941.08 1097.11C984.27 1174.2 1004.71 1233.04 1009.06 1243.59C1011.17 1248.7 1005.73 1250.6 1004.47 1251.26C952.8 1278.07 858.23 1291.52 831.33 1278.19C831.33 1278.19 822.74 1263.7 819.55 1185.82" stroke="black" stroke-width="12.09" stroke-miterlimit="10" stroke-linecap="round"/>
          <path id="Vector_68" d="M981.21 1225.17C967.84 1231.43 948.04 1237.5 920.11 1242.3C890.36 1247.41 866.12 1250.49 844.06 1250.23" stroke="#BF4718" stroke-width="8.06" stroke-miterlimit="10" stroke-linecap="round"/>
          <path id="Vector_69" d="M992.08 1415.26C991.086 1398.1 989.876 1380.95 988.45 1363.82C968.74 1359.15 948.51 1357.04 928.26 1357.54C907.84 1358.04 890.36 1361.13 876.69 1364.55C876.6 1380.85 876.8 1397.47 877.32 1414.4C879.66 1490.47 888.13 1561.02 900.07 1625.3C900.07 1625.3 930.23 1631.41 993.94 1616.51C996.44 1552.9 996.16 1485.68 992.08 1415.27V1415.26Z" fill="#FFF4C0"/>
          <path id="Vector_70" d="M875.05 1364.92C876.92 1424.82 881.56 1488.47 890 1555.29C893.02 1579.19 896.4 1602.53 900.08 1625.29M993.94 1616.5C993.43 1573.85 992.65 1530.72 991.56 1487.12C990.53 1446.06 989.26 1405.43 987.76 1365.24" stroke="black" stroke-width="12.09" stroke-miterlimit="10" stroke-linecap="square"/>
          <path id="Vector_71" d="M617.74 980.67C622.85 983.18 609.85 1002.75 615.53 1008.77C633.41 1027.73 692.66 1026.49 712.1 1011.23C720.5 1004.63 711.56 989.47 710.89 980.59C710.08 969.87 744.62 985.78 760.4 993.06C792.01 1007.65 827.72 1025.62 851.36 1065.29C867.58 1092.53 866.2 1096.5 862.84 1226.81C862.07 1256.75 861.19 1293.37 860.41 1338.46C859.37 1397.98 861.65 1447.6 863.15 1486.37C863.52 1495.86 879.17 1522.13 877.45 1544.33C876.07 1562.19 868.79 1560.51 868.79 1574.44C868.79 1590.88 882.22 1597.32 884.11 1614.6C885.69 1629 879.16 1644.45 880.8 1657.55C883.78 1681.28 884.97 1709.19 884.97 1709.19C862.72 1755.63 497.94 1783.88 432.96 1714.45C429.94 1711.22 433.3 1677.96 432.51 1662.75C431.8 1649.04 433.34 1644.01 436.35 1633.16C440.66 1617.62 446.55 1616.28 447.26 1604.18C448.01 1591.37 442.19 1581.52 441.61 1572.08C440.58 1555.06 450.69 1537.33 453.28 1532.67C472.29 1498.45 470.65 1336.83 469.4 1214.65C468.67 1143.33 468.07 1085.44 471.78 1074.19C491.16 1015.48 534.89 1016.41 549.9 1003.89C564.12 992.03 614.5 979.09 617.74 980.68V980.67Z" fill="#EF7820"/>
          <path id="Vector_72" d="M454.92 1679.27C533.86 1727.95 748.12 1721.55 835.16 1690.57C843.14 1687.62 850.94 1684.14 857.93 1679.65C858.299 1679.41 858.714 1679.24 859.149 1679.15C859.584 1679.07 860.031 1679.07 860.465 1679.16C860.899 1679.26 861.31 1679.43 861.675 1679.68C862.039 1679.94 862.351 1680.26 862.59 1680.63C863.59 1682.19 863.14 1684.26 861.58 1685.25C853.92 1690.14 845.74 1693.74 837.45 1696.79C748.92 1728.09 532.05 1734.27 451.65 1684.12C448.62 1681.96 451.43 1677.16 454.92 1679.27Z" fill="#BF4618"/>
          <path id="Vector_73" d="M569.2 1024.57C574.09 1029.96 608.91 1067 664.8 1065.22C718.4 1063.51 750.17 1027.4 755.13 1021.56" stroke="#BF4618" stroke-width="8.06" stroke-miterlimit="10" stroke-linecap="round"/>
          <path id="Vector_74" d="M596.11 1603.79C602.08 1600.46 624.39 1603.62 679.66 1590.81C721.967 1581 754.523 1571.22 777.33 1561.45C785.49 1557.96 739.19 1619.8 680.79 1626.94C637.11 1632.28 588.95 1607.78 596.11 1603.79Z" fill="#CE5A17"/>
          <path id="Vector_75" d="M862.83 1226.8C862.06 1256.74 861.18 1293.36 860.4 1338.45C859.36 1397.97 861.64 1447.59 863.14 1486.36C863.51 1495.85 879.16 1522.12 877.44 1544.32C876.06 1562.18 868.78 1560.5 868.78 1574.43C868.78 1590.87 882.21 1597.31 884.1 1614.59C885.68 1628.99 879.15 1644.44 880.79 1657.54C883.77 1681.27 884.96 1709.18 884.96 1709.18C862.71 1755.62 497.93 1783.87 432.95 1714.44C429.93 1711.21 433.29 1677.95 432.5 1662.74C431.79 1649.03 433.33 1644 436.34 1633.15C440.65 1617.61 446.54 1616.27 447.25 1604.17C448 1591.36 442.18 1581.51 441.6 1572.07C440.57 1555.05 450.68 1537.32 453.27 1532.66C472.28 1498.44 470.64 1336.82 469.39 1214.64M522.42 1010.75C578.54 984.31 614.49 979.08 617.73 980.67C617.73 980.67 613.97 1005.76 615.52 1008.77C627.48 1031.92 692.65 1026.49 712.09 1011.23C720.49 1004.63 715.42 982.34 715.42 982.34C718.62 973.08 784.31 1000.27 800.08 1007.55" stroke="black" stroke-width="12.09" stroke-miterlimit="10" stroke-linecap="round"/>
        </g>
      </g>
    </g>
  </g>
</svg>
