<svg width="916" height="1685" viewBox="0 0 916 1685" fill="none" xmlns="http://www.w3.org/2000/svg">
<g id="MEL">
<g id="Face">
<path id="Vector" d="M764.45 502.21C764.45 650.86 609.83 771.36 419.1 771.36C228.37 771.36 73.75 650.86 73.75 502.21C73.75 353.56 231.14 237.22 421.87 237.22C612.6 237.22 764.44 353.56 764.44 502.21H764.45Z" fill="#BE7750"/>
<path id="Vector_2" d="M770.49 502.21C770.63 561.95 744.6 619.77 704.09 663C563.29 813.05 286.46 815.08 141.16 670.39C45.2401 574.58 42.46 434.7 138.75 337.94C269.24 208.43 500.64 195.14 651.61 296.12C720.13 341.48 771.43 418.15 770.49 502.21ZM758.41 502.21C758.36 445.25 733.94 390.95 694.73 350.14C596.66 248.34 433.75 224.28 301.36 261.19C216.97 284.81 134.87 337.29 97.81 419.18C59.52 503.12 85.29 598.65 149.59 662.07C276.86 787.9 499.4 798.25 645.1 698.53C710.19 653.95 758.62 583.02 758.41 502.21Z" fill="black"/>
<path id="Vector_3" d="M75.44 490.31C73.81 500.86 71.4 503.14 66.95 545.52C65.56 558.74 67.52 575.57 67.05 603.55C66.74 622.17 66.24 631.12 62.44 642.16C57.68 656 51.89 661.11 42.29 675.26C37.03 683.02 21.18 706.73 12.41 737.4C9.99002 745.85 4.51002 767.47 5.87002 795.32C6.44002 806.95 7.40003 823.5 15.63 842.5C21.85 856.85 31.62 871.21 33.91 870.18C35.43 869.49 32.51 862.57 31.45 854.39C27.39 823.04 53 791.49 57.19 793.23C58.32 793.7 57.28 796.31 57.21 804.35C57.18 807.48 57.19 824.78 63.68 840.07C66.63 847.03 73.4 862.98 85.43 866.74C94.64 869.62 108.86 865.96 133.96 838.9C161.43 809.28 203.87 763.52 212.04 686.9C218.56 625.85 203.71 541.53 145.88 497.35C125.34 481.66 78.39 471.14 75.42 490.32L75.44 490.31Z" fill="#BE7750"/>
<path id="Vector_4" d="M212.07 686.89C200.93 686.77 223.73 691.84 219.2 675.09C214.37 657.23 91.17 747.52 89.6 750.16C83.04 761.13 82.1 765.03 78.86 777.75C77.63 782.6 72.82 800.51 77.37 832.06C80.35 852.72 81.84 863.06 89.21 872.63C97.25 883.07 107.09 886.87 122.7 892.94C164.69 909.26 197.82 901.86 205.66 899.32C214.84 896.35 219.77 894.75 224.06 890.12C225.56 888.51 227.87 885.56 228.98 886.09C229.73 886.45 229.52 888.21 229.08 892.02C227.85 902.67 227.61 905.04 228.9 906.08C230.55 907.41 233.81 905.85 234.01 905.76C243.3 901.21 240.14 880.72 244.62 879.96C246.35 879.66 247.92 882.53 250.26 885.91C250.26 885.91 259.04 898.65 270.73 906.3C282.14 913.77 296.76 914.55 297.92 911.88C298.25 911.13 297.39 910.39 295.26 907.47C295.26 907.47 290.99 901.61 287.33 893.76C284.71 888.15 282.37 880.16 283.88 879.35C285.37 878.54 289.44 885.49 296.05 892.18C307.89 904.14 321.4 908.7 327.84 910.87C339.41 914.77 346.9 914.28 368.12 914.21C420.41 914.04 422.83 916.87 429.02 912.68C451.16 897.69 440.58 847.39 436.65 828.5C429.19 792.68 416.49 731.66 358.68 693.24C310.37 661.13 238.17 653.42 188.41 681.31C170.74 691.21 233.73 687.16 212.09 686.92L212.07 686.89Z" fill="#9D5431"/>
<path id="Vector_5" d="M284.58 884.93C282.69 878.01 281.01 870.21 279.86 861.63C277.53 844.23 278.09 828.88 279.54 816.67M330.88 841.86C332 853.11 334.09 866.18 337.9 880.45C341.01 892.12 344.7 902.46 348.42 911.38" stroke="#762D0F" stroke-width="8.06" stroke-miterlimit="10" stroke-linecap="square"/>
<path id="Vector_6" d="M81.36 477.14C75.97 511.49 71.44 546.38 71.68 581.09C71.65 589.9 72.63 598.47 73.1 607.28C73.47 616.52 72.71 625.93 70.49 635.05C68.27 644.21 64.72 653.07 59.57 661.02C57 664.99 54.19 668.56 51.56 672.02C50.53 673.29 48.67 675.92 47.69 677.22C36.79 693.08 27.71 710.39 20.92 728.39C4.47003 773.52 6.52003 829.34 34.48 869.52C35.51 870.96 36.7 872.42 37.88 873.6C37.88 873.6 33.01 878.1 33.01 878.06C28.6 868.8 27.22 858.45 27.04 848.31C26.73 834.07 30.4 819.85 37.63 807.56C39.7 804.03 42.02 800.64 44.68 797.44C47.74 793.96 50.58 790.71 54.87 788.43L62.72 784.46L62.54 793.35C61.7 801.22 61.68 809.41 62.17 817.32C64.04 843.7 83.84 864.51 104.56 879.23C131.12 897.12 197.17 907.9 223.22 886.13L223.87 885.5L224.35 885.03C224.74 884.66 225.79 883.92 226.7 883.83C227.53 883.67 228.58 883.85 229.26 884.24C230.86 885.13 231.31 886.33 231.75 887.51C232.3 889.25 232.42 890.62 232.6 892.28C233.05 898.19 233.17 904 231.62 909.76L228.8 905.37C234.82 903.03 241.02 884.51 243.09 878.16L245.97 869.53L250.33 878.02C258.21 891 269.44 902.55 283.67 908.37C287.42 909.8 291.63 911.32 295.54 910.69C295.62 910.67 295.6 910.65 295.42 910.83C295.31 910.93 295.21 911.08 295.09 911.31C294.99 911.54 294.93 911.81 294.93 912.01C294.94 912.42 295.01 912.4 294.94 912.3C294.89 912.19 294.79 912 294.64 911.77C291.31 907.32 287.43 902.93 284.97 897.89C282.69 893.38 281.66 888.35 280.36 883.47C280 881.91 279.55 880.42 279.54 878.73C279.61 875.54 283.25 873.96 285.57 875.78C285.85 875.99 285.87 876.03 285.98 876.13C286.33 876.44 286.55 876.81 286.79 877.15L287 877.49C287.06 877.6 287.06 877.58 287.1 877.63L287.26 877.85C289.3 880.5 291.71 882.91 294.16 885.27C298.03 888.89 302.14 892.29 306.49 895.33C312.91 899.65 319.48 904.08 326.92 906.11C334.51 907.98 342.41 907.91 350.38 908.02C362.6 908.15 419.74 906.8 432.76 906.65L432.73 918.73L399.78 918.19C379.68 917.72 353 918.48 333.3 916.36C327.49 915.65 321.32 913.99 316.13 911.15C311.02 908.35 306.29 905.3 301.72 901.88C294.87 896.72 288.54 890.98 283.02 884.36C282.22 883.36 281.29 882.2 280.62 881.05C280.6 881.02 280.61 881.03 280.62 881.05C280.68 881.14 280.78 881.24 280.88 881.34C280.96 881.41 280.95 881.41 281.19 881.6C281.5 881.79 281.34 881.76 282.06 882.07C282.67 882.26 283.33 882.49 284.73 881.99C286.2 881.22 286.38 880.68 286.77 879.53C286.82 879.35 286.84 879.07 286.84 879.05V878.89C287.41 882.22 288.8 885.9 289.87 889.3C290.68 891.81 291.41 894.02 292.59 896.38C294.24 899.97 296.12 903.41 298.44 906.67C299.47 908.38 300.89 909.69 300.92 912.09C300.05 921.84 278.39 914.73 273.08 912.25C259.57 906.35 248.49 894.74 243.15 881L250.38 880.85C249.41 883.36 248.09 886.87 247.05 889.32C243.79 896.49 239.39 908.16 231.81 911.66C230.7 912.13 229.25 912.4 227.81 912.19L223.95 911.63C224.57 909.47 225.4 906.54 225.66 904.32C226.15 899.53 226.13 894.35 225.13 889.68C225.09 889.55 225 889.41 225.16 889.67C225.26 889.79 225.41 890.07 226.04 890.42C226.48 890.66 227.3 890.83 227.86 890.7C228.26 890.68 229.08 890.22 229.12 890.12L229.17 890.07L229.08 890.16L228.88 890.36C222.51 896.98 214.02 901.64 205.3 904C173.55 912.17 124.71 904.05 97.83 885.16C78.3 870.62 59.76 851.28 54.66 826.57C52.55 815.49 52.86 804.33 51.86 793.1C51.86 793.08 59.53 798.01 59.53 798.01C57.11 799.5 54.74 801.98 52.84 804.27C44.92 813.79 39.96 825.69 38.06 837.9C35.68 849.73 35.2 862.33 38.79 873.95C38.92 874.34 39.08 874.79 39.17 875.03L44.92 886.14L34.3 879.51C32.07 878.06 30.39 875.96 28.71 873.99C24.4 868.64 20.73 862.85 17.51 856.82C0.510025 824.64 -2.70998 786.48 3.91002 751.04C8.87002 724.39 20.64 699.41 34.86 676.5C41.57 665.55 51.01 656.17 55.59 644.11C60.3 632.63 62.04 620.23 61.45 607.78C61.27 603.47 60.75 599.16 60.44 594.78C58.93 572.46 60.31 549.98 62.46 527.92C64.26 510.27 66.65 492.72 69.41 475.26L81.34 477.16L81.36 477.14Z" fill="black"/>
<path id="Vector_7" d="M735.99 466.08C745.99 470.03 759.17 477.25 765.88 490.82C771.52 502.22 770.15 513.13 769.5 520.59C769.08 525.51 771.55 549.9 776.51 598.68C779.88 631.82 782.15 654.19 791.29 681.32C802.53 714.69 813.34 746.76 842.36 763.69C868.33 778.84 879.61 785.33 901.73 787.63C904.08 787.87 899.81 792.26 895.74 796.79C892.39 800.52 885.76 806.87 874.39 811.58C867.02 814.63 849.42 821.93 833.62 814.94C824.6 810.95 820.45 804.21 818.47 805.6C815.6 807.61 822.85 822.87 824.69 826.75C833.7 845.73 841.9 852.42 839.24 857.13C837.17 860.81 830.11 860.39 821.99 859.92C814.51 859.48 802.32 858.76 792.54 850.83C779.31 840.09 779.16 823.16 775.53 823.65C772.47 824.07 774.21 835.83 768.32 849.43C763.29 861.05 754.88 868.94 750.35 872.09C727.87 887.71 687.16 865.54 683 863.27C601.19 818.7 568.23 574.02 677.14 491.8C698.51 475.67 720.96 469.1 736.01 466.07L735.99 466.08Z" fill="#BE7750"/>
<path id="Vector_8" d="M637.23 705.87C647.99 705.75 635.85 664.02 640.23 647.28C644.89 629.42 748.43 747 749.95 749.64C756.28 760.61 757.2 764.51 760.32 777.23C761.51 782.08 766.15 799.99 761.76 831.54C758.88 852.2 757.44 862.54 750.33 872.11C742.56 882.55 733.07 886.35 718 892.42C677.45 908.74 645.47 901.34 637.9 898.8C629.04 895.83 624.28 894.23 620.13 889.6C618.69 887.99 616.45 885.04 615.38 885.57C614.65 885.93 614.85 887.69 615.28 891.5C616.47 902.15 616.7 904.52 615.45 905.56C613.86 906.89 610.7 905.33 610.51 905.24C601.54 900.69 604.59 880.2 600.27 879.44C598.6 879.14 597.08 882.01 594.83 885.39C594.83 885.39 586.35 898.13 575.07 905.78C564.06 913.25 549.94 914.03 548.82 911.36C548.5 910.61 549.33 909.87 551.39 906.95C551.39 906.95 555.51 901.09 559.05 893.24C561.58 887.63 563.84 879.64 562.39 878.83C560.95 878.02 557.02 884.97 550.64 891.66C539.21 903.62 526.16 908.18 519.95 910.35C508.77 914.25 501.55 913.76 481.06 913.69C430.57 913.52 428.24 916.35 422.26 912.16C400.88 897.17 411.1 846.87 414.89 827.98C422.09 792.16 434.36 731.14 490.18 692.72C536.83 660.61 614.33 642.16 654.58 680.79C669.48 695.09 616.35 706.15 637.25 705.9L637.23 705.87Z" fill="#9D5431"/>
<path id="Vector_9" d="M561.69 884.41C563.52 877.49 565.14 869.69 566.25 861.11C568.5 843.71 567.95 828.36 566.56 816.15M516.99 841.34C515.91 852.59 513.89 865.66 510.22 879.93C507.22 891.6 503.65 901.94 500.06 910.86" stroke="#762D0F" stroke-width="8.06" stroke-miterlimit="10" stroke-linecap="square"/>
<path id="Vector_10" d="M769.64 474.75C774.47 505.73 777.44 537.18 779.51 568.41C780.26 579.13 780.96 589.57 782.66 600.03C784.22 612.29 785.81 625.43 788.07 637.47C789.48 645.1 791.38 652.81 792.76 660.39C794.84 670.86 796.5 681.05 799.88 690.97C809.08 718.89 826.43 743.71 848.93 762.56L853.36 766.16C861.94 773.45 871.51 778.11 882.54 780.51C892.84 782.89 904.5 782.96 915.16 782.98C911.94 786.54 907.28 792.47 903.93 795.57C893.07 806.08 880.41 814.84 865.72 819.25C847.71 824.67 830.32 820.34 816.11 808.33L821.93 804.61C824.78 813.27 827.48 822.1 831.31 830.39C834.73 837.57 840.24 847.51 844 854.61L847.15 860.49L840.69 862.33C820.99 867.9 804.08 866.53 788.12 852.85C779.76 845.42 774.04 835.34 771.32 824.56L779.74 824.58C776.63 838.82 773.02 853.16 765.4 865.85C760.09 874.96 751.33 881.8 743.32 888.09C725.88 901.77 697.32 907.89 675.53 907.9C655.06 907.21 632.22 905.49 616.33 891L614.97 889.63C616.01 890.78 618.53 890.61 619.42 889.11C618.87 891.51 618.74 895.02 618.75 897.8C618.75 900.45 618.89 903.21 619.46 905.8C619.75 907.33 620.72 910.07 621.1 911.47L616.61 912.14C605.12 913.73 596.67 889.17 593.98 880.51L602.43 880.68C597.43 891.02 589.27 899.6 579.98 906.21C575.29 909.42 570.31 912.04 565.08 914.27C560.96 915.93 556.63 917.36 551.96 917.2C549.26 917.2 545.46 915.64 545.06 912.33C544.79 910.27 545.43 909.25 546.14 907.92C547.28 906.05 548.63 904.5 549.79 902.8C552.28 899.25 554.46 895.38 555.79 891.27C557.02 887.08 558.39 882.64 559.13 878.38C559.14 878.33 559.13 878.23 559.13 878.54L559.15 878.74C559.16 878.85 559.18 878.93 559.2 879.06C559.9 882.17 563.91 883 565.78 880.78C566 880.51 565.91 880.61 565.9 880.65L565.6 881.16C556.98 893.53 538.52 908.87 524.36 913.89C516.18 916.53 507.45 916.76 499.18 917.12C472.31 917.74 445.48 917.63 418.67 918.2L418.64 906.12C441.47 906.11 492.69 908.53 514.48 906.58C519.44 906.01 523.77 904.78 528.14 902.38C539.28 896.25 549.75 888.09 557.92 878.31C558.44 877.67 558.69 877.35 559.09 876.7C559.25 876.44 559.33 876.26 559.77 875.73C559.82 875.67 559.94 875.54 560.03 875.45C560.15 875.34 560.15 875.31 560.45 875.07C560.81 874.83 560.68 874.83 561.5 874.47C562.22 874.24 562.99 873.95 564.59 874.55C567.7 876.06 567.08 879.23 566.44 881.71C565.64 885.03 564.58 888.41 563.56 891.64C561.95 897.12 558.98 902.18 555.93 906.97C554.81 908.73 553.47 910.41 552.58 912.1C552.95 911.25 552.28 909.76 551.52 909.44C555.17 910.05 559.19 909.05 562.9 908.09C572.79 905.36 580.87 898.42 586.79 890.19C589.54 886.38 591.91 882.32 593.78 878.03L594.07 877.31L598.45 866.4L602.52 877.48C604.49 882.72 606.58 888.6 608.81 893.69C610.5 897.53 612.58 902.13 615.47 904.41L612.28 909.35C611.9 907.92 611.76 906.76 611.54 905.37C611.02 901.63 611.14 897.8 611.35 894.04C611.73 890.69 611.56 885.6 614.96 883.6C616.78 882.52 619.26 883.37 620.31 884.68C624.33 889.12 629.41 892.23 635.05 894.53C643.39 897.91 652.51 899.51 661.53 900.04C666.1 900.28 670.7 900.06 675.27 899.73C693.26 898.3 711.9 895.34 728.05 887.21C731.99 885.27 735.7 882.74 739.06 879.95C742.8 876.99 746.46 874.21 749.64 871.19C763.02 858.62 767.13 840.12 771.33 822.76L775.58 804.3C775.93 805.54 779.94 824.19 780.32 824.86C783.84 835.76 790.91 846.29 801.46 851.3C812.99 855.92 825.95 855.19 837.8 851.97L834.49 859.68C832.2 855.01 826.79 845.48 824.77 840.92C821.88 834.29 819.82 827.26 818.31 820.19C816.8 812.51 813.78 802.4 811.89 794.72L820.83 802.91C847.9 827.72 880.89 807.96 901.05 784.64L904.76 792.54C884.43 792.92 862.77 787.82 847.01 774.25C824.73 757.01 806.28 734.55 794.91 708.69C791.7 701.43 788.64 693.49 786.63 685.83C783.6 674.22 781.85 662.79 779.23 651.31C775.68 636.08 773.43 620.08 771.46 604.58C767.17 577.43 766.87 549.94 763.7 522.78C762.09 507.34 760.1 491.95 757.71 476.61L769.65 474.77L769.64 474.75Z" fill="black"/>
<path id="Vector_11" d="M380.2 16.07C380.2 16.07 364.43 33.91 353.6 57C336.98 92.43 345.98 138.08 347.78 144.56C364.61 205.19 419.1 229.06 424.33 233.73C425.9 235.13 419.32 229.61 412.12 213.57C412.12 213.57 397.04 179.95 386.01 131.51C370.88 65.07 380.2 16.08 380.2 16.08V16.07Z" fill="#BE7750" stroke="black" stroke-width="12.08" stroke-miterlimit="10"/>
<path id="Vector_12" d="M449.06 975.34C437.11 977.8 413.15 978.45 400.31 975.34C387.23 972.17 372.89 935.05 375.98 917.98C380.98 890.37 375.98 845.05 375.98 845.05C375.98 831.17 386.87 819.92 400.31 819.92H449.06C462.49 819.92 473.39 831.17 473.39 845.05C473.39 845.05 467.32 902.45 473.39 920C477.93 933.11 467.32 971.59 449.06 975.34Z" fill="#D6AB82" stroke="black" stroke-width="12.08" stroke-miterlimit="10"/>
<path id="Vector_13" d="M424.43 910.86C452.044 910.86 474.43 897.415 474.43 880.83C474.43 864.245 452.044 850.8 424.43 850.8C396.816 850.8 374.43 864.245 374.43 880.83C374.43 897.415 396.816 910.86 424.43 910.86Z" fill="black"/>
<path id="Vector_14" d="M726.21 609.38C726.13 469.38 583.32 333.12 422.46 341.76C265.73 350.17 158.85 492.55 149.7 616.39C147.86 641.26 146.79 708.43 189.23 769.99C260.1 872.8 393.44 874.54 422.46 874.92C449.79 875.28 521.65 875.25 593.56 828.72C601.78 823.4 726.29 740.17 726.21 609.38Z" fill="#FBF5C0"/>
<g id="right_x5F_cheek" opacity="0.75">
<path id="Vector_15" d="M260.58 695.67L245.41 713.29C243.69 715.23 240.73 712.79 242.3 710.73L256.68 692.46C258.85 689.85 262.73 693.03 260.58 695.67ZM279.57 707.1L269.25 727.99C268.05 730.29 264.61 728.69 265.6 726.29L274.98 704.96C276.44 701.88 280.99 704 279.56 707.1H279.57Z" fill="#B34718"/>
</g>
<g id="left_x5F_cheek" opacity="0.76">
<path id="Vector_16" d="M587.19 696.97L594.17 705.83L601.58 715.24C601.9 715.654 602.047 716.177 601.988 716.698C601.93 717.218 601.671 717.695 601.266 718.028C600.862 718.361 600.344 718.523 599.822 718.481C599.3 718.438 598.815 718.194 598.47 717.8L583.3 700.18C581.16 697.55 585.01 694.36 587.2 696.97H587.19ZM568.88 709.47L578.26 730.8C579.25 733.2 575.82 734.81 574.61 732.5L564.29 711.61C562.87 708.52 567.41 706.39 568.87 709.47H568.88Z" fill="#B34718"/>
</g>
<path id="Vector_17" d="M712.26 608.33C698.71 461.73 582.51 341.75 422.46 341.75C262.41 341.75 155.4 479.12 145.9 626.04C136.35 773.82 259.59 874.91 422.46 874.91C585.33 874.91 726.21 759.28 712.26 608.33Z" stroke="black" stroke-width="12.08" stroke-miterlimit="10"/>
<path id="Vector_18" d="M417.41 626.14C417.25 637.39 416.91 649.29 410.98 659.42C403.99 669.87 396.59 680.6 386.01 687.85L385.91 687.92C385.9 687.93 385.95 687.9 385.97 687.89C386.41 687.62 386.82 686.94 386.9 686.48C387 685.9 386.89 685.88 386.97 686.06C388.61 689.46 392.07 692.64 394.88 695.27C400.02 699.78 405.87 704.09 411.64 707.93C413.59 709.22 415.59 710.45 417.54 711.46C418.6 711.93 419.08 713.21 418.53 714.25C418.13 715.02 417.3 715.42 416.48 715.32C413.76 714.97 411.33 714.14 408.94 713.25C401.8 710.43 395.33 706.66 389.29 701.79C384.65 697.68 374.7 689.08 379.54 682.17C380.06 681.51 380.65 681.01 381.34 680.57C384.19 678.76 386.81 676.71 389.36 674.41C395.01 669.37 400.06 663.31 404.77 657.28C408.8 652.43 410.44 646.42 411.9 640.14C412.93 635.51 413.62 630.74 414.26 625.95C414.51 624.04 417.39 624.14 417.42 626.14H417.41Z" fill="#B34718"/>
</g>
<g id="half_open_mouth">
<path id="Vector_19" d="M342.78 734.85C362.84 727.74 381.31 737.62 415.33 738.71C454.69 739.97 474.81 727.99 495.56 737.2C506.22 741.93 509.13 750.98 509.98 753.43C516.03 770.94 494.6 786.94 491.03 789.39C458.48 811.68 381.27 811.2 345.34 790.21C339.62 786.87 317.93 769.03 324.23 751.25C326.52 744.79 333.24 738.25 342.77 734.87L342.78 734.85Z" fill="#B33428"/>
<path id="Vector_20" d="M350.85 793.07C387.51 810.63 455.81 810.6 488.15 791.22C473.41 780.36 455.92 773.15 419.5 773.15C383.08 773.15 359.36 782.43 350.85 793.07Z" fill="#F29597"/>
<path id="Vector_21" d="M470.37 740.83V736.13C470.37 735.43 470.19 734.76 469.94 734.11C455.83 735.43 439.1 739.47 415.33 738.71C393.75 738.02 378.44 733.8 365 732.61C364.22 733.67 363.74 734.85 363.74 736.13V740.83C363.74 745.09 388.12 750.94 404.16 750.99C420.59 751.05 410.17 751.02 425.02 750.99C454.62 750.92 470.38 745.08 470.38 740.83H470.37Z" fill="white"/>
<path id="Vector_22" d="M364.51 731.65C390.76 734.22 417.41 735.31 443.81 734.46C452.64 734.17 461.48 733.68 470.32 733.1L471 738.27C462.15 739.99 453.21 741.09 444.23 741.82C421.8 743.64 399.1 742.82 376.86 739.33C372.41 738.59 367.96 737.76 363.53 736.51L364.52 731.66L364.51 731.65Z" fill="#DA9562"/>
<path id="Vector_23" d="M338.28 784.77C335.96 782.43 345.62 780.24 346.9 780C353.35 778.77 366.04 781.86 362.92 783.98C361.28 785.09 353.94 789.58 350.84 793.07C350.84 793.07 343.44 790 338.28 784.77ZM498.67 783.76C500.99 781.42 491.33 779.23 490.05 778.99C483.6 777.76 470.91 780.85 474.03 782.97C475.67 784.08 484.58 787.85 487.68 791.34C487.68 791.34 493.51 788.99 498.67 783.77V783.76Z" fill="white"/>
<path id="Vector_24" d="M348.28 789.38C347.21 790.68 381.08 803.4 418.33 803.15C455.45 802.9 489.46 789.62 488.39 787.95C482.66 778.98 460.77 793.7 418.83 794.03C376.66 794.36 355.79 780.2 348.28 789.38Z" fill="white"/>
<path id="Vector_25" d="M338.32 782.42C343.95 786.33 350.71 788.54 357.16 790.82C363.76 793.08 370.5 794.96 377.28 796.61C390.73 799.76 404.51 802.13 418.3 801.98C439.05 801.67 459.86 797.53 479.43 790.64C485.71 788.21 492.5 785.85 497.49 781.26L499.3 782.64C494.81 788.64 487.86 791.95 481.39 795.3C461.636 804.537 440.172 809.547 418.37 810.01C400.14 810.11 382.25 805.99 365.24 799.73C358.49 797.15 351.88 794.27 345.62 790.63C342.51 788.75 339.4 786.87 336.76 784.02L338.31 782.43L338.32 782.42Z" fill="#DA9562"/>
</g>
<g id="open_mouth">
<path id="Vector_26" d="M337.76 727.96C359.15 718.75 378.86 731.55 415.14 732.96C457.12 734.59 478.58 719.07 500.72 731C512.09 737.12 515.2 748.84 516.1 752.02C522.55 774.69 499.7 795.42 495.89 798.59C461.17 827.45 378.81 826.84 340.49 799.65C334.39 795.32 311.26 772.21 317.98 749.19C320.42 740.82 327.59 732.35 337.76 727.97V727.96Z" fill="#B33428"/>
<path id="Vector_27" d="M346.36 803.37C385.47 826.11 458.31 826.08 492.81 800.98C477.09 786.92 458.43 777.58 419.58 777.58C380.73 777.58 355.43 789.59 346.36 803.37Z" fill="#F29597"/>
<path id="Vector_28" d="M473.85 735.71V729.62C473.85 728.71 473.66 727.84 473.39 727C458.34 728.7 440.49 733.95 415.15 732.96C392.13 732.07 375.8 726.6 361.46 725.07C360.63 726.44 360.11 727.97 360.11 729.62V735.71C360.11 741.22 386.12 748.8 403.22 748.87C420.74 748.94 409.63 748.92 425.47 748.87C457.04 748.78 473.85 741.22 473.85 735.71Z" fill="white"/>
<path id="Vector_29" d="M361 724.55C379.55 727.3 398.53 728.35 417.26 728.95C436.11 729.32 454.97 728.28 473.74 726.46L474.56 731.61C446.28 737.61 416.95 738.43 388.29 734.95C378.67 733.71 369.15 732.26 359.82 729.36L361.01 724.55H361Z" fill="#DA9562"/>
<path id="Vector_30" d="M346.71 800.62C389.34 817.47 431.23 820.37 474.99 805.65C480.87 803.63 486.83 801.35 492.22 798.28L493.92 800.48C491.46 802.81 488.74 804.69 485.96 806.46C443.7 832.05 386.22 831.28 345.48 803.03L346.71 800.61V800.62Z" fill="#BF6C4A"/>
</g>
<g id="neutral_mouth" filter="url(#filter0_d_1_13)">
<path d="M328.19 751.76C366.85 779.49 418.11 788.36 463.45 773.34C478.5 768.53 492.81 761.35 505.78 752.31C507.24 751.27 509.28 751.63 510.3 753.1C511.29 754.51 510.98 756.44 509.65 757.5C506.39 760.07 503.03 762.51 499.54 764.75C489.12 771.59 477.83 777.04 466.03 781.09C434.57 792.08 399.28 791.83 367.95 780.47C352.36 774.77 337.67 766.68 324.84 756.15C322.19 753.88 325.24 749.78 328.19 751.77V751.76Z" fill="#B34718"/>
</g>


<g id="left_eye_open">
<path id="Vector_37" d="M486.64 606.99C487.34 575.41 513.81 549.72 550.62 549.72C587.44 549.72 617.28 575.33 617.28 606.91C617.28 638.5 587.36 661.81 550.62 664.1C513 666.45 485.88 640.78 486.64 606.98V606.99Z" fill="#FBF5C0"/>
<path id="Vector_38" d="M550.62 549.73C587.44 549.73 617.28 575.34 617.28 606.92V606.99H486.64C487.34 575.41 513.81 549.72 550.62 549.72V549.73Z" fill="#D2B4A8"/>
<path id="Vector_39" d="M541.93 647.29C562.867 647.29 579.84 630.317 579.84 609.38C579.84 588.443 562.867 571.47 541.93 571.47C520.993 571.47 504.02 588.443 504.02 609.38C504.02 630.317 520.993 647.29 541.93 647.29Z" fill="#D29D27" stroke="#6F5C18" stroke-width="12.08" stroke-miterlimit="10"/>
<path id="Vector_40" d="M541.93 596.07C551.418 596.07 559.11 591.1 559.11 584.97C559.11 578.84 551.418 573.87 541.93 573.87C532.442 573.87 524.75 578.84 524.75 584.97C524.75 591.1 532.442 596.07 541.93 596.07Z" fill="#FBF5C0"/>
<path id="Vector_41" d="M528.66 529.35C515.85 534.5 503.72 540.26 493.68 549.82C490.27 552.97 487.16 556.38 484.09 559.93C482.64 561.6 479.88 559.99 480.62 557.91C485.75 543.45 498.32 531.74 512.92 527.11C517.84 525.62 522.99 524.85 528.09 525.37C529.23 525.49 530.06 526.5 529.95 527.64C529.87 528.43 529.35 529.08 528.66 529.36V529.35Z" fill="#B34718"/>

<path id="left_eye_open_lid" d="M611.27 609.9C607.57 596.3 600.27 583.19 589.63 573.92C574.03 559.86 550.45 553.98 529.78 559.53C507.54 565.23 492.12 585.15 487.6 607.56C487.2 609.56 485.25 610.85 483.25 610.44C482.331 610.25 481.519 609.718 480.978 608.951C480.437 608.184 480.209 607.239 480.34 606.31C481.541 597.856 484.044 589.638 487.76 581.95C501.16 553.34 534.34 537.49 565.25 542.75C587.88 546.19 608.77 561.37 617.88 582.48C621.53 590.82 623.59 599.72 623.31 608.85C622.86 615.97 612.92 616.76 611.27 609.91V609.9Z"   />
<path id="left_eye_open_lash" d="M611.27 609.9C607.57 596.3 600.27 583.19 589.63 573.92C574.03 559.86 550.45 553.98 529.78 559.53C507.54 565.23 492.12 585.15 487.6 607.56C487.2 609.56 485.25 610.85 483.25 610.44C482.331 610.25 481.519 609.718 480.978 608.951C480.437 608.184 480.209 607.239 480.34 606.31C481.541 597.856 484.044 589.638 487.76 581.95C501.16 553.34 534.34 537.49 565.25 542.75C587.88 546.19 608.77 561.37 617.88 582.48C621.53 590.82 623.59 599.72 623.31 608.85C622.86 615.97 612.92 616.76 611.27 609.91V609.9Z" fill="black"/>
</g>

<g id="left_eye_close">
<path id="left_eye_close_lid" d="M472.85 609.03C473.55 577.45 503.84 535.42 551.02 537.19C587.81 538.57 627.18 574.69 627.18 606.28C627.18 637.87 587.65 663.83 550.9 666.12C513.28 668.47 472.1 642.82 472.85 609.03Z" fill="#FBF5C0"/>
<path id='left_eye_close_lash' d="M579.239 646.48C548.335 652.123 516.851 652.123 485.731 647.986V647.975C484.457 647.809 483.171 648.161 482.129 648.962C481.087 649.764 480.364 650.955 480.105 652.299C479.846 653.644 480.069 655.043 480.731 656.22C481.392 657.397 482.442 658.264 483.674 658.651C499.48 663.599 515.975 666.231 532.46 667.041C560.038 668.221 587.959 664.357 614.05 654.639C617.613 653.292 619.719 649.217 618.774 645.217C617.761 640.963 613.706 638.405 609.739 639.5C599.632 642.248 589.485 644.659 579.239 646.48Z" fill="black"/>
</g>
<g id="right_eye_open">
<path id="Vector_31" d="M356.13 606.94C355.43 575.36 328.96 549.67 292.15 549.67C255.33 549.67 225.49 575.28 225.49 606.86C225.49 638.45 255.41 661.76 292.15 664.05C329.77 666.4 356.89 640.73 356.13 606.93V606.94Z" fill="#FBF5C0"/>
<path id="Vector_32" d="M292.14 549.68C255.32 549.68 225.48 575.29 225.48 606.87V606.94H356.12C355.42 575.36 328.95 549.67 292.14 549.67V549.68Z" fill="#D2B4A8"/>
<path id="Vector_33" d="M338.75 609.32C338.75 630.26 321.78 647.23 300.84 647.23C279.9 647.23 262.93 630.26 262.93 609.32C262.93 588.38 279.9 571.41 300.84 571.41C321.78 571.41 338.75 588.38 338.75 609.32Z" fill="#D29D27" stroke="#6F5C18" stroke-width="12.08" stroke-miterlimit="10"/>
<path id="Vector_34" d="M300.84 596.02C310.328 596.02 318.02 591.05 318.02 584.92C318.02 578.79 310.328 573.82 300.84 573.82C291.352 573.82 283.66 578.79 283.66 584.92C283.66 591.05 291.352 596.02 300.84 596.02Z" fill="#FBF5C0"/>
<path id="Vector_35" d="M314.67 525.31C330.18 523.98 345.39 532.6 354.79 544.57C357.95 548.6 360.49 553.08 362.14 557.86C362.51 558.93 361.94 560.09 360.87 560.46C360.06 560.74 359.2 560.48 358.67 559.88C352.73 552.91 346.15 546.42 338.51 541.42C334.79 538.95 330.88 536.81 326.82 534.85C322.75 532.85 318.51 531.17 314.07 529.29C312.11 528.48 312.57 525.5 314.67 525.32V525.31Z" fill="#B34718"/>
<path id="right_eye_open_lid" d="M219.46 608.8C218.67 581.02 238.37 555.13 264.33 546.13C289.59 536.82 319.93 542.66 339.6 561.05C352.41 572.85 360.02 589.32 362.44 606.28C362.98 610.98 356.23 612.15 355.18 607.53C351.29 588.75 340.16 571.78 323.25 563.34C300.7 552.19 271.4 557.41 253.15 573.88C242.51 583.15 235.21 596.27 231.51 609.86C229.85 616.76 219.88 615.86 219.47 608.8H219.46Z" fill="black"/>
<path id="right_eye_open_lash" d="M219.46 608.8C218.67 581.02 238.37 555.13 264.33 546.13C289.59 536.82 319.93 542.66 339.6 561.05C352.41 572.85 360.02 589.32 362.44 606.28C362.98 610.98 356.23 612.15 355.18 607.53C351.29 588.75 340.16 571.78 323.25 563.34C300.7 552.19 271.4 557.41 253.15 573.88C242.51 583.15 235.21 596.27 231.51 609.86C229.85 616.76 219.88 615.86 219.47 608.8H219.46Z" fill="black"/>
</g>
<g id="right_eye_close">
<path id="right_eye_close_lid" d="M369.3 609.02C368.6 577.44 338.31 535.41 291.13 537.18C254.34 538.56 214.97 574.68 214.97 606.27C214.97 637.86 254.5 663.82 291.25 666.11C328.87 668.46 370.05 642.81 369.3 609.02Z" fill="#FBF5C0"/>
<path id='right_eye_close_lash'd="M359.84 658.9C316.77 671.15 269.71 669.56 227.37 655.08C225.488 654.418 223.946 653.036 223.082 651.238C222.218 649.44 222.102 647.373 222.76 645.49C223.383 643.71 224.652 642.23 226.315 641.343C227.979 640.456 229.915 640.226 231.74 640.7C242.01 643.3 252.32 645.59 262.73 647.33C283.57 650.82 304.77 652.15 325.9 651.35C336.51 650.96 347.13 650.01 357.78 648.75C364.07 648.14 365.89 657 359.84 658.9Z" fill="black"/>
</g>
<!-- <g id="right_eye_halfopen">
<path id="Vector_43" d="M362.91 608.16C358.42 610.66 352.19 597.97 331.54 587.38C324.51 583.78 305.99 574.57 283.51 577.19C266.86 579.13 254.47 586.82 244.35 593.1C224.14 605.64 217.6 617.09 212.72 614.59C206.92 611.62 210.19 592.41 215.03 579.55C217.29 573.54 224.19 555.92 242.59 543.13C276.17 519.77 315.6 535.04 318.76 536.32C337.45 543.91 347.56 556.39 349.54 558.9C364.69 578.13 368.94 604.81 362.92 608.17L362.91 608.16Z" fill="#FBF5C0"/>
<path id="Vector_44" d="M220.99 605.15C237.29 582.74 262.8 566.68 291.28 568.69C311.18 570.09 331.18 579.11 346.78 591.09C351.98 595.21 356.7 599.47 361.27 604.35C361.933 605.068 362.284 606.02 362.246 606.996C362.209 607.973 361.786 608.895 361.07 609.56C360.38 610.196 359.475 610.545 358.537 610.538C357.599 610.53 356.699 610.167 356.02 609.52C351.59 605.58 346.51 601.86 341.43 598.71C316.28 583.02 285.56 579.7 259.5 594.2C249.55 599.57 239.49 606.95 229.43 613.74C223.79 617.47 217.18 610.7 221 605.15H220.99Z" fill="black"/>
</g>
<g id="left_eye_halfopen">
<path id="Vector_45" d="M479.69 608.16C484.18 610.66 490.41 597.97 511.06 587.38C518.09 583.78 536.61 574.57 559.09 577.19C575.74 579.13 588.13 586.82 598.25 593.1C618.46 605.64 625 617.09 629.88 614.59C635.68 611.62 632.41 592.41 627.57 579.55C625.31 573.54 618.41 555.92 600.01 543.13C566.43 519.77 527 535.04 523.84 536.32C505.15 543.91 495.04 556.39 493.06 558.9C477.91 578.13 473.66 604.81 479.68 608.17L479.69 608.16Z" fill="#FBF5C0"/>
<path id="Vector_46" d="M612.97 613.6C598 603.67 584.74 592.8 567.81 587.88C549.82 582.43 530.61 584.67 513.05 592.46C506.16 595.42 499.7 599.37 493.63 603.82C491.2 605.62 488.75 607.59 486.59 609.52C485.09 610.95 482.67 610.86 481.29 609.3C480.684 608.615 480.353 607.73 480.363 606.815C480.372 605.901 480.72 605.022 481.34 604.35C483.65 601.85 485.94 599.65 488.36 597.44C493.21 593 498.34 588.91 503.91 585.34C523.95 572.83 548.62 564.62 572.35 570.47C590.84 574.7 606.73 586.75 618.55 601.11C619.61 602.41 620.58 603.67 621.61 605.14C625.5 610.87 618.56 617.59 612.97 613.59V613.6Z" fill="black"/>
</g> -->
<g id="Front_Hair">
<g id="front_x5F_hair_x5F_right">
<path id="Vector_47" d="M407.52 340.91C414.03 358.52 387.77 383.92 351.99 418.53C316.39 452.97 283.61 472.83 270.93 480.16C237.8 499.31 198.18 517.16 138.91 524.09C136.05 524.42 129.7 527.06 126.6 524.09C117.29 515.17 142.19 457.26 152 442.51C196.62 375.35 225.31 352.59 270.53 333.22C326.05 309.44 398.42 316.27 407.53 340.92L407.52 340.91Z" fill="#BE7750"/>
<path id="Vector_48" d="M374.42 394.02C358.896 412.565 341.626 429.576 322.85 444.82C260.12 495.7 194.13 515.58 151.98 524.1" stroke="black" stroke-width="12.08" stroke-miterlimit="10" stroke-linecap="round"/>
</g>
<g id="front_x5F_hair_x5F_left">
<path id="Vector_49" d="M429.29 340.91C422.78 358.52 449.04 383.92 484.82 418.53C520.42 452.97 553.2 472.83 565.88 480.16C599.01 499.31 638.63 517.16 697.9 524.09C700.76 524.42 707.11 527.06 710.21 524.09C719.52 515.17 694.62 457.26 684.81 442.51C640.19 375.35 611.5 352.59 566.28 333.22C510.76 309.44 438.39 316.27 429.28 340.92L429.29 340.91Z" fill="#BE7750"/>
<path id="Vector_50" d="M462.38 394.02C477.905 412.565 495.174 429.576 513.95 444.82C576.68 495.7 642.67 515.58 684.82 524.1" stroke="black" stroke-width="12.08" stroke-miterlimit="10" stroke-linecap="round"/>
</g>
<g id="front_x5F_hair">
<path id="Vector_51" d="M341.75 337.83C334.21 347.04 332.18 357.11 328.94 373.15C324.25 396.4 326.93 414.99 328.49 425.13C329.47 431.52 334.27 460.39 353.71 492.18C360.06 502.57 375.41 525.43 402.31 545.54C404.18 546.94 408.38 552.33 410.43 551.28C412.06 550.44 411.39 546.09 411 543.71C407.26 521.05 403.92 513.18 403.92 513.18C395.45 493.23 387.08 466.01 390.61 464.13C391.78 463.51 394.08 465.76 397.31 469.08C409.61 481.76 415.76 488.09 421.72 496.91C431.67 511.64 449.43 517.1 479.75 526.42C488.72 529.18 541.02 545.25 549.66 530.08C550.44 528.71 550.66 527.45 550.84 524.8C552.35 502.34 544.33 482.93 544.33 482.93C525.7 437.85 531.61 432.63 512.78 399.54C502.54 381.56 492.87 364.9 473.88 348.47C466.27 341.88 455.51 332.58 439.27 326.05C409.32 314.01 362.73 312.19 341.75 337.83Z" fill="#BE7750"/>
<path id="Vector_52" d="M331.04 391.51C329.34 441.64 349.17 487.68 384.36 523.08C390.78 529.63 397.55 535.88 404.72 541.59C408.1 544.19 411.47 546.91 415.21 548.67C415.35 548.74 415.55 548.75 415.13 548.7C415.03 548.7 414.84 548.68 414.56 548.7C413.59 548.7 412.03 549.67 411.53 550.76C411.02 551.74 411.01 552.37 411.09 553.08C410.48 549.68 409.27 546.42 408.14 542.78C399.56 517.57 394.88 491.17 387.61 465.65L386.27 461.12C386.06 460.11 385.8 459.58 386.36 458.13C386.52 456.99 389.19 455.7 389.96 456.17C391.36 456.44 391.82 456.98 392.57 457.68C396.34 461.95 399.84 466.8 403.6 471.03C411.57 480.25 420 489.21 429.24 497.06C445.63 510.42 465.76 518.16 486.37 522.57C498.26 525.09 510.44 526.49 522.6 526.82C530.97 526.9 539.4 527.07 547.47 525.22C546.51 525.59 545.62 526.56 545.29 527.27C545.14 527.62 545.22 527.47 545.24 527.31C546.1 519.04 544.92 510.48 544.02 502.19C541.04 477.91 533.17 454.46 524.69 431.55C522.59 426 520.15 420.79 517.3 415.55L524.25 410.52C528.75 415.4 532.3 421.25 534.99 427.24C542.29 444.99 548.23 462.98 552.09 481.89C553.99 491.2 559.12 525.8 554.41 532.75C553.96 533.53 552.67 534.67 551.6 535.04L551.05 535.25L550.18 535.53C541.04 537.67 531.52 537.51 522.31 537.38C490.33 536.2 457.43 529.08 430.77 510.52C420.12 503.16 411.17 493.49 403.41 483.28C398.37 476.9 393.15 468.95 388.08 462.61L387.79 462.29C387.72 462.21 387.62 462.12 387.73 462.21C388.15 462.46 388.03 462.5 389.03 462.72C389.7 463.16 392.27 461.93 392.39 460.88C392.77 459.86 392.67 459.73 392.63 459.26C392.63 459.26 392.63 459.28 392.64 459.33C394.4 465.12 398.75 480.31 400.54 486.36L411.06 522.25C413.76 531.44 416.89 539.94 419.57 549.29C419.75 550.05 419.93 550.86 420.06 551.63C420.77 556.47 416.08 558.96 412 557.14C407.15 555.1 403.13 551.84 399.06 548.8C391.51 542.89 384.43 536.45 377.67 529.67C359.42 511.7 344.94 489.99 335.15 466.31C325.16 442.71 320.48 416.47 323.82 390.95L331.06 391.48L331.04 391.51Z" fill="black"/>
<path id="Vector_53" d="M322.98 403.4C323.22 396.25 323.98 389.42 324.79 382.36C325.51 375.37 327.31 368.28 329.8 361.72C331.45 357.32 333.42 353.07 335.56 348.96C335.674 348.734 335.87 348.56 336.109 348.474C336.348 348.389 336.61 348.399 336.841 348.502C337.073 348.605 337.256 348.793 337.353 349.027C337.449 349.261 337.452 349.524 337.36 349.76C334.18 358.26 331.89 367.1 331.2 376.11C330.63 384.89 330.57 394.35 331.03 403.19C331.25 408.76 323.07 409 322.98 403.41V403.4ZM460.23 333.62C471.12 342.13 481.63 350.91 490.88 361.22C498.57 369.97 505.53 379.46 511.7 389.31C516.22 396.46 520.4 403.66 524.91 410.45C525.267 410.985 525.515 411.586 525.639 412.218C525.763 412.849 525.762 413.499 525.635 414.129C525.507 414.76 525.257 415.36 524.897 415.893C524.538 416.427 524.077 416.885 523.54 417.24C521.21 418.8 518.02 418.06 516.61 415.64C512.27 408.27 508.48 400.81 504.46 393.62C498.5 382.85 491.69 372.57 483.95 363.03C475.9 353.83 466.73 345.15 457.42 337.22C455.18 335.32 457.82 331.88 460.24 333.63L460.23 333.62Z" fill="#762D0F"/>
</g>
<g id="sidehair_x5F_left">
<path id="Vector_54" d="M630.2 400.69C634.56 413.04 640.23 428.08 647.3 461.9C651.81 483.48 653.61 490.13 660.55 563.93C668.43 647.7 668.78 632.26 671.78 673.21C676.87 742.8 675.51 782.93 673.13 811.79C669.15 859.98 662.4 875.86 659.1 882.86C651.07 899.9 639.6 915.15 643.66 919.2C646.58 922.11 655.72 917.41 663.32 913.51C682.14 903.84 694.01 891.75 697.48 888.13C716.85 867.91 726.85 847.85 729.62 842.09C744.31 811.53 747.36 783.76 748.76 765.81C755.43 680.27 742.07 594.57 731.56 538.99C713.14 441.58 699.58 416.25 675.95 403.94C660.83 396.07 626.24 389.47 630.2 400.68V400.69Z" fill="#BE7750"/>
<path id="Vector_55" d="M657.99 492.58C658.82 501.46 659.51 510.38 660.61 519.21C661.14 523.63 661.74 528.02 662.38 532.45C663.03 536.88 663.69 541.38 664.28 545.9C664.87 550.42 665.39 554.94 665.88 559.45C666.37 563.98 666.76 568.53 667.17 572.97C667.99 581.91 668.9 590.86 669.83 599.78C671.66 617.63 673.77 635.56 675.43 653.56C677.1 671.56 678.4 689.62 679.16 707.71C679.94 725.78 680.06 743.96 679.79 761.99C679.53 780.04 679.12 798.15 677.52 816.31C676.71 825.39 675.55 834.47 673.9 843.5C673.47 845.75 673.07 848.01 672.56 850.25C672.08 852.49 671.6 854.74 671.03 856.96L670.21 860.3L669.3 863.62C668.7 865.85 668.08 868.02 667.45 870.17C664.88 878.79 662.49 887.51 658.99 896.24C658.13 898.41 657.19 900.53 656.23 902.62L654.79 905.77C654.31 906.83 653.8 907.81 653.31 908.83C651.34 912.89 649.42 916.97 647.5 921.06L643.64 914.87C646.13 914.81 648.86 914.35 651.41 913.63C652.69 913.27 653.93 912.84 655.05 912.35C656.31 911.76 657.66 911.14 658.94 910.52C661.51 909.22 664.07 907.88 666.54 906.39C669.02 904.92 671.41 903.3 673.78 901.66C678.47 898.31 682.97 894.68 687.15 890.7C691.33 886.72 695.22 882.49 698.84 877.97C699.335 877.348 699.947 876.83 700.643 876.445C701.338 876.061 702.103 875.817 702.893 875.729C703.682 875.641 704.482 875.709 705.245 875.931C706.008 876.152 706.72 876.523 707.34 877.02C707.96 877.516 708.477 878.129 708.86 878.825C709.243 879.521 709.485 880.286 709.573 881.075C709.66 881.865 709.591 882.664 709.369 883.426C709.147 884.189 708.777 884.9 708.28 885.52C708.17 885.65 708.05 885.79 707.94 885.91C703.65 890.42 699.15 894.81 694.35 898.79C689.57 902.81 684.55 906.54 679.29 909.89C676.64 911.54 673.97 913.16 671.21 914.62C668.48 916.13 665.68 917.5 662.85 918.81C661.42 919.45 660.01 920.05 658.53 920.67C656.938 921.3 655.304 921.818 653.64 922.22C650.38 923.01 647.14 923.47 643.62 923.46L636.6 923.42L639.76 917.26C641.81 913.26 643.84 909.26 645.84 905.24C646.33 904.24 646.85 903.22 647.31 902.23L648.67 899.24C649.54 897.22 650.39 895.2 651.15 893.17C652.7 889.13 653.93 884.93 655.15 880.65L658.74 867.69C659.35 865.51 659.95 863.35 660.5 861.23L661.35 858.03L662.11 854.81C662.64 852.67 663.09 850.51 663.53 848.35C664 846.2 664.37 844.02 664.76 841.84C666.29 833.14 667.33 824.34 668.06 815.48C669.49 797.75 669.75 779.83 669.86 761.88C669.98 743.9 669.71 726.06 668.8 708.16C667.9 690.28 666.48 672.42 664.67 654.58C662.88 636.73 660.64 618.91 658.65 600.96C657.64 591.99 656.66 583.03 655.76 574.05C655.3 569.53 654.89 565.11 654.37 560.7C653.86 556.27 653.31 551.85 652.7 547.44C652.09 543.03 651.4 538.64 650.72 534.16C650.03 529.69 649.38 525.17 648.8 520.65C647.6 511.62 646.83 502.59 645.92 493.55C645.84 492.761 645.916 491.963 646.144 491.204C646.372 490.444 646.747 489.736 647.249 489.121C647.75 488.507 648.368 487.997 649.066 487.621C649.765 487.245 650.531 487.01 651.32 486.93C652.109 486.85 652.907 486.926 653.666 487.154C654.426 487.382 655.134 487.757 655.749 488.259C656.363 488.76 656.873 489.378 657.249 490.076C657.625 490.775 657.86 491.541 657.94 492.33V492.38L657.96 492.56L657.99 492.58Z" fill="black"/>
<path id="Vector_56" d="M629.93 393.04C646.71 427.04 655.56 464.15 658.91 501.83L659.31 507.86L647.3 508.62C645.97 488.57 642.89 468.14 639.16 448.31C635.62 430.35 630.5 412.55 625.23 395.01L624.48 392.56L628.78 390.77L629.94 393.05L629.93 393.04ZM751.17 756.11C752.09 785.05 746.07 814.16 735.24 840.97C730.46 851.74 725.05 861.89 718.7 871.81C715.47 876.76 712.06 881.62 707.64 886.29L703.48 890.68L694.79 881.78L699.19 877.64C702.82 874.23 706.29 869.94 709.52 865.52C715.98 856.6 721.89 846.89 726.91 837.09C729.34 832.21 731.46 826.85 733.41 821.78C741.71 800.11 746.55 777.21 746.89 753.93H751.11L751.17 756.1V756.11Z" fill="#762D0F"/>
</g>
<g id="sidehair_x5F_right">
<path id="Vector_57" d="M219.13 403.86C214.77 416.21 209.1 431.25 202.03 465.07C197.52 486.65 195.72 493.3 188.78 567.1C180.9 650.87 180.55 635.43 177.55 676.38C172.46 745.97 173.82 786.1 176.2 814.96C180.18 863.15 186.93 879.03 190.23 886.03C198.26 903.07 209.73 918.32 205.67 922.37C202.75 925.28 193.61 920.58 186.01 916.68C167.19 907.01 155.32 894.92 151.85 891.3C132.48 871.08 122.48 851.02 119.71 845.26C105.02 814.7 101.97 786.93 100.57 768.98C93.9 683.44 107.26 597.74 117.77 542.16C136.19 444.75 149.75 419.42 173.38 407.11C188.5 399.24 223.09 392.64 219.13 403.85V403.86Z" fill="#BE7750"/>
<path id="Vector_58" d="M203.74 496.53C198.47 532.21 194.21 567.86 190.54 603.72C184.01 657.31 178.51 710.83 179.36 764.87C179.58 800.56 180.31 836.47 190.51 870.84C193.58 881.75 195.91 892.39 200.63 902.42C202.59 906.79 207.45 916.1 209.59 920.44L212.77 926.73H205.67C195.63 926.86 186.65 922.45 178.12 917.67C166.35 910.96 155.94 902.25 146.02 893.16C144.26 891.71 142.52 890.23 140.93 888.63C135.25 882.75 143.4 874.33 149.45 879.76C151.05 881.44 151.69 883.8 153.39 885.37L154.18 886.15C165.05 896.81 176.64 907.06 190.39 913.73C195.03 916.21 200.44 917.91 205.67 917.99L201.75 924.28C195.94 912.26 189.53 899.02 185.82 886.27C183.45 878.72 181.16 871.02 179.12 863.39C175.43 848.97 173.14 834.12 171.85 819.34C168.51 774.01 168.78 728.75 171.85 683.46C174.34 647.4 179.19 611.62 182.32 575.68C184.73 548.7 188.33 521.73 191.78 494.89C192.93 487.28 204.48 488.14 203.75 496.52L203.74 496.53Z" fill="black"/>
<path id="Vector_59" d="M224.1 398.17C220.07 411.27 216.35 424.84 213.06 438.1C207.98 460.21 204.47 483.25 202.47 505.76L202.02 511.79L190.01 511.03C190.59 499.5 192.05 487.91 194.06 476.8C198.9 448.11 207.22 419.91 220.54 393.93L224.84 395.72L224.09 398.17H224.1ZM102.49 759.28C103.2 787.36 110.51 814.93 122.4 840.27C127.42 850.07 133.33 859.78 139.79 868.7C143.03 873.12 146.49 877.41 150.12 880.82L154.52 884.96L145.83 893.86C135.67 883.9 128.31 872.12 121.76 859.87C118.69 854.1 115.75 848.2 113.21 842.1C107.2 826.54 102.76 810.34 100.18 793.86C98.35 781.64 97.79 769.38 98.21 757.12H102.43L102.5 759.29L102.49 759.28Z" fill="#762D0F"/>
</g>
<g id="hair_x5F_bright" style="mix-blend-mode:lighten">
<path id="Vector_60" d="M231.88 340.03C213.38 328 206.1 315.19 201.69 307.29C174.55 318.26 160.1 339.12 147.63 348.87C144.06 351.66 163.78 364.06 200.16 376.89C210.45 364.37 221.11 352.16 231.87 340.02L231.88 340.03ZM345.96 369.3C342.26 369.07 338.62 368.81 335.11 368.52C334.99 380.96 333.82 393.35 332.76 405.76C341.11 406.62 349.71 407.3 358.45 407.85C353.87 395.14 349.46 382.28 345.97 369.3H345.96ZM478.26 364.39C454.19 367.76 426.35 369.91 394.02 370.36C391.8 370.39 389.64 370.4 387.47 370.42C391.35 383.45 396.13 396.42 400.96 409.12C435.84 408.92 470.47 404.49 503.83 398.01C495.61 386.6 487.11 375.38 478.25 364.39H478.26ZM636.23 363.51C651.76 358.91 666.41 354.59 679.91 350.95C681.86 350.43 690.44 349.1 688.92 345.41C684.81 335.41 620.31 294.82 620.31 294.82C615.8 303.3 608.68 312.45 597.83 321.36C611.37 334.64 623.94 348.88 636.23 363.52V363.51ZM562.3 342.5C550.99 347.44 537.8 351.99 522.35 355.92C530.51 366.69 538.4 377.62 546.02 388.7C562.61 384.62 578.68 380.22 594.18 375.81C584.11 364.15 573.65 352.83 562.3 342.51V342.5Z" fill="#E59158"/>
</g>
</g>
<g id="Eyebrows">
<path id="Right_Eyebrow" d="M349.68 475.45C345.85 471.53 326.32 462.61 311.22 459.81C272.39 452.59 241.86 466.32 226.49 473.5C224.34 474.5 199.01 488.15 202.37 489.8C205.8 491.47 221.57 488.72 241.48 487.19C314.55 481.58 355.33 481.25 349.68 475.46V475.45Z" fill="#762D0F"/>
<path id="Left_Eyebrow" d="M489.61 475.45C493.44 471.53 512.97 462.61 528.07 459.81C566.9 452.59 597.43 466.32 612.8 473.5C614.95 474.5 640.28 488.15 636.92 489.8C633.56 491.45 617.72 488.72 597.81 487.19C524.74 481.58 483.96 481.25 489.61 475.46V475.45Z" fill="#762D0F"/>
</g>
<g id="Hairclips">
<path id="hairclip_x5F_2" d="M256.95 497.51L233.08 512.07C229.07 512.33 226.91 510.13 225.73 507.77L177.88 411.93C176.7 409.57 177.75 406.96 180.11 405.78L204.15 391.75C204.711 391.47 205.321 391.303 205.946 391.259C206.572 391.215 207.199 391.294 207.794 391.493C208.388 391.692 208.938 392.006 209.411 392.417C209.883 392.828 210.271 393.329 210.55 393.89L259.09 491.12C260.27 493.48 259.31 496.34 256.95 497.52V497.51Z" fill="#EF7820" stroke="#432918" stroke-width="8.06" stroke-miterlimit="10"/>
<path id="hairclip_x5F_2_x5F_shadow" d="M255.74 492.62C256.07 493.31 255.48 494.34 254.41 494.96L232.75 507.47C231.6 508.13 230.34 508.08 229.97 507.35L221.17 489.77L247.23 476.52L255.74 492.62Z" fill="#D15618"/>
<path id="hairclip_x5F_1" d="M316.4 459.47L294.44 476.78C290.49 477.51 288.08 475.59 286.63 473.39L227.66 383.96C226.21 381.76 226.94 379.04 229.14 377.59L251.33 360.78C253.53 359.33 256.49 359.94 257.94 362.14L317.76 452.86C319.21 455.06 318.6 458.02 316.4 459.47Z" fill="#EF7820" stroke="#432918" stroke-width="8.06" stroke-miterlimit="10"/>
<path id="hairclip_x5F_1_x5F_shadow" d="M314.62 454.76C315.03 455.41 314.57 456.5 313.58 457.24L293.57 472.25C292.51 473.05 291.25 473.14 290.79 472.46L279.95 456.06L304.24 439.79L314.62 454.76Z" fill="#D15618"/>
</g>
<g id="Body">
<path id="Vector_61" d="M109.39 1184.47C131.83 1186.44 154.31 1184.69 176.88 1186.43C191.64 1187.56 206.27 1189.88 220.77 1192.9C219.42 1200 217.94 1207.53 216.6 1216.17C215.12 1225.77 214.14 1233.18 213.07 1242.03C211.65 1253.78 209.78 1269.75 207.71 1289.25C191.69 1285.12 170.88 1293.27 147.38 1292.25C127.25 1291.37 101.41 1276.27 99.14 1290.93C103.23 1264.56 102.58 1246.15 104.29 1215.95C104.61 1210.29 109.31 1189.92 109.38 1184.47H109.39Z" fill="#FFF4C0"/>
<path id="Vector_62" d="M107.68 1184.32C130.69 1186.55 153.74 1184.64 176.88 1186.42C190.92 1187.5 204.83 1189.66 218.63 1192.46C221.97 1206.71 214.15 1218.42 213.07 1242.02C213.07 1242.02 184.75 1230.94 149.58 1225.19C123.93 1221 103.52 1221.49 103.52 1221.49C110.24 1192.07 107.29 1194.03 107.67 1184.32H107.68Z" fill="#D6AB82"/>
<path id="Vector_63" d="M219.2 1202.76C217.3 1216.96 215.44 1231.26 213.63 1245.65C212.34 1255.89 212.67 1271.73 212.28 1281.86M99.36 1286.6C99.36 1272.93 99.96 1248.31 101.61 1235.73C103.53 1221.1 105.56 1206.73 107.7 1192.6" stroke="black" stroke-width="12.09" stroke-miterlimit="10" stroke-linecap="square"/>
<path id="Vector_64" d="M302.6 927.18C300.56 926.85 211.9 954.49 175.78 986.89C134.82 1023.65 76.18 1130.27 75.82 1172.3C75.82 1172.3 204.79 1223.6 255.65 1201.79C255.65 1201.79 329.44 1032.34 321.55 964.06C321.55 964.06 315.12 929.22 302.6 927.18Z" fill="#EF7922"/>
<path id="Vector_65" d="M308.9 925.87C251.25 936.98 171.13 975.68 145.9 1020.71C102.71 1097.8 82.27 1156.64 77.92 1167.19C75.81 1172.3 81.25 1174.2 82.51 1174.86C134.18 1201.67 228.75 1215.12 255.65 1201.79C255.65 1201.79 264.24 1187.3 267.43 1109.42" stroke="black" stroke-width="12.09" stroke-miterlimit="10" stroke-linecap="round"/>
<path id="Vector_66" d="M105.77 1148.78C119.14 1155.04 138.94 1161.11 166.87 1165.91C196.62 1171.02 220.86 1174.1 242.92 1173.84" stroke="#BF4718" stroke-width="8.06" stroke-miterlimit="10" stroke-linecap="round"/>
<path id="Vector_67" d="M94.91 1338.86C95.92 1321.47 97.13 1304.32 98.54 1287.42C118.251 1282.75 138.48 1280.64 158.73 1281.14C179.15 1281.64 196.63 1284.73 210.3 1288.15C210.39 1304.45 210.19 1321.07 209.67 1338C207.33 1414.07 198.86 1484.62 186.92 1548.9C186.92 1548.9 156.76 1555.01 93.05 1540.11C90.55 1476.5 90.83 1409.28 94.91 1338.87V1338.86Z" fill="#FFF4C0"/>
<path id="Vector_68" d="M211.94 1288.52C210.07 1348.42 205.43 1412.07 196.99 1478.89C193.97 1502.79 190.59 1526.13 186.91 1548.89M93.04 1540.11C93.55 1497.46 94.33 1454.33 95.42 1410.73C96.45 1369.67 97.72 1329.04 99.22 1288.85" stroke="black" stroke-width="12.09" stroke-miterlimit="10" stroke-linecap="square"/>
<path id="Vector_69" d="M736.59 1182.86C714.15 1184.83 691.67 1183.08 669.1 1184.82C654.34 1185.95 639.71 1188.27 625.21 1191.29C626.56 1198.39 628.04 1205.92 629.38 1214.56C630.86 1224.16 631.84 1231.57 632.91 1240.42C634.33 1252.17 636.2 1268.14 638.27 1287.64C654.29 1283.51 675.1 1291.66 698.6 1290.64C718.73 1289.76 744.57 1274.66 746.84 1289.32C742.75 1262.95 743.4 1244.54 741.69 1214.34C741.37 1208.68 736.67 1188.31 736.6 1182.86H736.59Z" fill="#FFF4C0"/>
<path id="Vector_70" d="M738.3 1182.72C715.29 1184.95 692.24 1183.04 669.1 1184.82C655.06 1185.9 641.15 1188.06 627.35 1190.86C624.01 1205.11 631.83 1216.82 632.91 1240.42C632.91 1240.42 661.23 1229.34 696.4 1223.59C722.05 1219.4 742.46 1219.89 742.46 1219.89C735.74 1190.47 738.69 1192.43 738.31 1182.72H738.3Z" fill="#D6AB82"/>
<path id="Vector_71" d="M626.78 1201.16C628.68 1215.36 630.54 1229.66 632.35 1244.05C633.64 1254.29 633.31 1270.13 633.7 1280.26M746.63 1285C746.63 1271.33 746.03 1246.71 744.38 1234.13C742.46 1219.5 740.43 1205.13 738.29 1191" stroke="black" stroke-width="12.09" stroke-miterlimit="10" stroke-linecap="square"/>
<path id="Vector_72" d="M543.38 925.57C545.42 925.24 634.08 952.88 670.2 985.28C711.16 1022.04 769.8 1128.66 770.16 1170.69C770.16 1170.69 641.19 1221.99 590.33 1200.18C590.33 1200.18 516.54 1030.73 524.43 962.45C524.43 962.45 530.86 927.61 543.38 925.57Z" fill="#EF7922"/>
<path id="Vector_73" d="M537.08 924.27C594.73 935.38 674.85 974.08 700.08 1019.11C743.27 1096.2 763.71 1155.04 768.06 1165.59C770.17 1170.7 764.73 1172.6 763.47 1173.26C711.8 1200.07 617.23 1213.52 590.33 1200.19C590.33 1200.19 581.74 1185.7 578.55 1107.82" stroke="black" stroke-width="12.09" stroke-miterlimit="10" stroke-linecap="round"/>
<path id="Vector_74" d="M740.21 1147.17C726.84 1153.43 707.04 1159.5 679.11 1164.3C649.36 1169.41 625.12 1172.49 603.06 1172.23" stroke="#BF4718" stroke-width="8.06" stroke-miterlimit="10" stroke-linecap="round"/>
<path id="Vector_75" d="M751.08 1337.26C750.086 1320.1 748.876 1302.95 747.45 1285.82C727.74 1281.15 707.51 1279.04 687.26 1279.54C666.84 1280.04 649.36 1283.13 635.69 1286.55C635.6 1302.85 635.8 1319.47 636.32 1336.4C638.66 1412.47 647.13 1483.02 659.07 1547.3C659.07 1547.3 689.23 1553.41 752.94 1538.51C755.44 1474.9 755.16 1407.68 751.08 1337.27V1337.26Z" fill="#FFF4C0"/>
<path id="Vector_76" d="M634.05 1286.92C635.92 1346.82 640.56 1410.47 649 1477.29C652.02 1501.19 655.4 1524.53 659.08 1547.29M752.94 1538.5C752.43 1495.85 751.65 1452.72 750.56 1409.12C749.53 1368.06 748.26 1327.43 746.76 1287.24" stroke="black" stroke-width="12.09" stroke-miterlimit="10" stroke-linecap="square"/>
<path id="Vector_77" d="M376.74 902.67C381.85 905.18 368.85 924.75 374.53 930.77C392.41 949.73 451.66 948.49 471.1 933.23C479.5 926.63 470.56 911.47 469.89 902.59C469.08 891.87 503.62 907.78 519.4 915.06C551.01 929.65 586.72 947.62 610.36 987.29C626.58 1014.53 625.2 1018.5 621.84 1148.81C621.07 1178.75 620.19 1215.37 619.41 1260.46C618.37 1319.98 620.65 1369.6 622.15 1408.37C622.52 1417.86 638.17 1444.13 636.45 1466.33C635.07 1484.19 627.79 1482.51 627.79 1496.44C627.79 1512.88 641.22 1519.32 643.11 1536.6C644.69 1551 638.16 1566.45 639.8 1579.55C642.78 1603.28 643.97 1631.19 643.97 1631.19C621.72 1677.63 256.94 1705.88 191.96 1636.45C188.94 1633.22 192.3 1599.96 191.51 1584.75C190.8 1571.04 192.34 1566.01 195.35 1555.16C199.66 1539.62 205.55 1538.28 206.26 1526.18C207.01 1513.37 201.19 1503.52 200.61 1494.08C199.58 1477.06 209.69 1459.33 212.28 1454.67C231.29 1420.45 229.65 1258.83 228.4 1136.65C227.67 1065.33 227.07 1007.44 230.78 996.19C250.16 937.48 293.89 938.41 308.9 925.89C323.12 914.03 373.5 901.09 376.74 902.68V902.67Z" fill="#EF7820"/>
<path id="Vector_78" d="M213.92 1601.27C292.86 1649.95 507.12 1643.55 594.16 1612.57C602.14 1609.62 609.94 1606.14 616.93 1601.65C617.299 1601.41 617.714 1601.24 618.149 1601.15C618.584 1601.07 619.031 1601.07 619.465 1601.16C619.899 1601.26 620.31 1601.43 620.675 1601.68C621.039 1601.94 621.351 1602.26 621.59 1602.63C622.59 1604.19 622.14 1606.26 620.58 1607.25C612.92 1612.14 604.74 1615.74 596.45 1618.79C507.92 1650.09 291.05 1656.27 210.65 1606.12C207.62 1603.96 210.43 1599.16 213.92 1601.27Z" fill="#BF4618"/>
<path id="Vector_79" d="M328.2 946.57C333.09 951.96 367.91 989 423.8 987.22C477.4 985.51 509.17 949.4 514.13 943.56" stroke="#BF4618" stroke-width="8.06" stroke-miterlimit="10" stroke-linecap="round"/>
<path id="Vector_80" d="M355.11 1525.79C361.08 1522.46 383.39 1525.62 438.66 1512.81C480.967 1503 513.523 1493.22 536.33 1483.45C544.49 1479.96 498.19 1541.8 439.79 1548.94C396.11 1554.28 347.95 1529.78 355.11 1525.79Z" fill="#CE5A17"/>
<path id="Vector_81" d="M621.83 1148.8C621.06 1178.74 620.18 1215.36 619.4 1260.45C618.36 1319.97 620.64 1369.59 622.14 1408.36C622.51 1417.85 638.16 1444.12 636.44 1466.32C635.06 1484.18 627.78 1482.5 627.78 1496.43C627.78 1512.87 641.21 1519.31 643.1 1536.59C644.68 1550.99 638.15 1566.44 639.79 1579.54C642.77 1603.27 643.96 1631.18 643.96 1631.18C621.71 1677.62 256.93 1705.87 191.95 1636.44C188.93 1633.21 192.29 1599.95 191.5 1584.74C190.79 1571.03 192.33 1566 195.34 1555.15C199.65 1539.61 205.54 1538.27 206.25 1526.17C207 1513.36 201.18 1503.51 200.6 1494.07C199.57 1477.05 209.68 1459.32 212.27 1454.66C231.28 1420.44 229.64 1258.82 228.39 1136.64M281.42 932.75C337.54 906.31 373.49 901.08 376.73 902.67C376.73 902.67 372.97 927.76 374.52 930.77C386.48 953.92 451.65 948.49 471.09 933.23C479.49 926.63 474.42 904.34 474.42 904.34C477.62 895.08 543.31 922.27 559.08 929.55" stroke="black" stroke-width="12.09" stroke-miterlimit="10" stroke-linecap="round"/>
</g>
</g>
<defs>
<filter id="filter0_d_1_13" x="319.826" y="751.241" width="195.056" height="45.9237" filterUnits="userSpaceOnUse" color-interpolation-filters="sRGB">
<feFlood flood-opacity="0" result="BackgroundImageFix"/>
<feColorMatrix in="SourceAlpha" type="matrix" values="0 0 0 0 0 0 0 0 0 0 0 0 0 0 0 0 0 0 127 0" result="hardAlpha"/>
<feOffset dy="4"/>
<feGaussianBlur stdDeviation="2"/>
<feComposite in2="hardAlpha" operator="out"/>
<feColorMatrix type="matrix" values="0 0 0 0 0 0 0 0 0 0 0 0 0 0 0 0 0 0 0.25 0"/>
<feBlend mode="normal" in2="BackgroundImageFix" result="effect1_dropShadow_1_13"/>
<feBlend mode="normal" in="SourceGraphic" in2="effect1_dropShadow_1_13" result="shape"/>
</filter>
</defs>
</svg>
